<?xml version="1.0" encoding="utf-8" ?>
<svg baseProfile="full" height="200mm" version="1.1" viewBox="0,0,200,200" width="200mm" xmlns="http://www.w3.org/2000/svg" xmlns:ev="http://www.w3.org/2001/xml-events" xmlns:xlink="http://www.w3.org/1999/xlink"><defs /><rect fill="#1a1a1a" height="200" width="200" x="0" y="0" /><text alignment-baseline="middle" fill="#e1ed5e" style="dominant-baseline: central; font-size:9.0px; font-family:Arial;" text-anchor="middle" x="100.0" y="100.0">2022</text><line stroke="#e1ed5e" stroke-width="0.3" x1="100.0" x2="100.0" y1="15.0" y2="10.0" /><path d="M 100.0 14.0 a86.0,86.0 0 0,1 42.46469731375804,11.215312516191453" fill="none" id="id37" stroke="none" /><text fill="#e1ed5e" style="font-size:6.75px; font-family:Arial;" text-anchor="middle"><textPath startOffset="22.20632615414155" xlink:href="#id37">January</textPath></text><path d="M 100.0 79.0 l 0.0 -9.705177321146952 a30.70517732114695,30.70517732114695 0 0,0 0.5285391530569604,0.004549303356127091 l -0.16705867378443207 9.703739394399383" fill="#ff1502" stroke="none" /><path d="M 100.72285384407766 79.0124445844662 l 0.29579235566729833 -8.588124012786945 a29.5932163464374,29.5932163464374 0 0,0 0.5089457801238932,0.02191627588802211 l -0.44357896818052317 8.58176001037473" fill="#ff0300" stroke="none" /><path d="M 104.66035177308747 79.52364482259891 l 3.352552500941906 -14.730230485303375 a36.10692882162793,36.10692882162793 0 0,0 0.6048362998085166,0.14314521068758163 l -3.6056124877129467 14.670339362474925" fill="#ff6b09" stroke="none" /><path d="M 106.0581310904928 79.89281104454417 l 4.176036380232209 -13.860438364227692 a35.47587757262328,35.47587757262328 0 0,0 0.5831805644758732,0.18119704016018032 l -4.414002317418801 13.78650118918499" fill="#ff6209" stroke="none" /><path d="M 107.4271985657038 80.35727306442388 l 3.0600565440635026 -8.092937676396469 a29.652143450434888,29.652143450434888 0 0,0 0.4758700731734009,0.18463019530611893 l -3.1989097822365706 8.039064777199803" fill="#ff0400" stroke="none" /><path d="M 107.76421540070413 80.48803036053334 l 10.653223105335982 -26.772230684755232 a49.81394624777755,49.81394624777755 0 0,0 0.7939776823137222,0.32388343220811244 l -11.112484657238092 26.58488636636354" fill="#ceff1d" stroke="none" /><path d="M 109.08828744355905 81.06846463323043 l 27.264862330677165 -56.79460610030869 a84.0,84.0 0 0,0 1.2981149319582728,0.6369793594606721 l -28.23844852964587 56.31687158071319" fill="#4dd2ff" stroke="none" /><line stroke="#e1ed5e" stroke-width="0.3" x1="143.23703022742887" x2="145.7803849466894" y1="26.81831364943548" y2="22.513508569990506" /><path d="M 143.74570117128098 25.957352633546492 a86.0,86.0 0 0,1 28.547481713284135,27.462654790039103" fill="none" id="id38" stroke="none" /><text fill="#e1ed5e" style="font-size:6.75px; font-family:Arial;" text-anchor="middle"><textPath startOffset="19.985693538727396" xlink:href="#id38">February</textPath></text><path d="M 112.19680574252982 82.90503203632743 l 8.376821205610042 -11.740901115443556 a35.422894734185014,35.422894734185014 0 0,0 0.49331387968186297,0.358413513244191 l -8.577680401645694 11.59496836738269" fill="#ff6108" stroke="none" /><path d="M 113.6212207817346 84.01681056812373 l 9.776374552316518 -11.471633044534695 a36.07235429837165,36.07235429837165 0 0,0 0.4691230312522071,0.406818869886796 l -9.97239138221549 11.301649181228226" fill="#ff6b09" stroke="none" /><path d="M 114.68862486808459 84.99185889309783 l 10.488992828162559 -10.717156020261031 a35.99587955779396,35.99587955779396 0 0,0 0.439088365914082,0.43720278092902776 l -10.671916994243963 10.535017388681887" fill="#ff6a09" stroke="none" /><path d="M 115.19652480421416 85.50635884689758 l 21.20771673233488 -20.226797899863826 a50.30683541907745,50.30683541907745 0 0,0 0.5922616020880803,0.6317833828615725 l -21.552745656393427 19.8587451001242" fill="#c8ff1d" stroke="none" /><path d="M 115.92442197804982 86.31012108654704 l 6.5192016553783825 -5.604415745672285 a29.597061479007095,29.597061479007095 0 0,0 0.3287943007153129,0.38918874498594896 l -6.6147065695808145 5.49136805105723" fill="#ff0300" stroke="none" /><path d="M 116.38621287248628 86.86637796730983 l 11.753392464888611 -9.420396002233426 a36.06273863786383,36.06273863786383 0 0,0 0.38406115899831583,0.4877186699065225 l -11.913807704480892 9.216684938373865" fill="#ff6b09" stroke="none" /><path d="M 117.2510076193507 88.02491185347247 l 46.40178601007915 -32.210609947427535 a77.48583130405797,77.48583130405797 0 0,0 0.7511533100393327,1.102224795032572 l -46.94936378578722 31.407107129124558" fill="#44ffe6" stroke="none" /><line stroke="#e1ed5e" stroke-width="0.3" x1="172.23445277983987" x2="176.4835382374775" y1="55.19839476539836" y2="52.563006222186495" /><path d="M 173.08426987136738 54.67131705675599 a86.0,86.0 0 0,1 12.851231095245387,41.99856678651699" fill="none" id="id39" stroke="none" /><text fill="#e1ed5e" style="font-size:6.75px; font-family:Arial;" text-anchor="middle"><textPath startOffset="22.20632615414155" xlink:href="#id39">March</textPath></text><path d="M 117.84615892207809 88.93136811851018 l 13.315529024025116 -8.258622469840994 a36.668699955293604,36.668699955293604 0 0,0 0.3280699723324912,0.5392607743235579 l -13.455714794643832 8.028193922310354" fill="#ff740a" stroke="none" /><path d="M 118.3937258080291 89.86733742301442 l 25.740422348709057 -14.179781571752953 a50.38767680699761,50.38767680699761 0 0,0 0.411959809855195,0.7632989618097094 l -25.980690257782715 13.734601626610782" fill="#c7ff1e" stroke="none" /><path d="M 119.196687751892 91.48605970444005 l 15.061930914119728 -6.6801305618999365 a37.47682940330891,37.47682940330891 0 0,0 0.2564651690903083,0.5919569700599773 l -15.174686793052716 6.419874447253356" fill="#ff800b" stroke="none" /><path d="M 119.7369772167798 92.82701384747503 l 15.067425617596221 -5.475936569320885 a37.03163111018404,37.03163111018404 0 0,0 0.2125737639485856,0.6009746561735592 l -15.159452462354617 5.215764286720711" fill="#ff7a0b" stroke="none" /><path d="M 119.85752413597 93.16781622104841 l 30.06909732212923 -10.345579719066656 a52.7990822743557,52.7990822743557 0 0,0 0.28828979333069477,0.861949787841277 l -30.2427244092317 9.826456828303066" fill="#a8ff21" stroke="none" /><path d="M 120.18372546131832 94.20196356495316 l 28.410902907337665 -8.161399664547499 a50.55990271456663,50.55990271456663 0 0,0 0.2330889267451286,0.8385448864629051 l -28.547178604649154 7.671143474665643" fill="#c4ff1e" stroke="none" /><path d="M 120.37134235888165 94.90015583598534 l 29.611079336987807 -7.412957255665222 a51.524874361341865,51.524874361341865 0 0,0 0.20798187221543665,0.8622191327366265 l -29.734294009464058 6.902152891269189" fill="#b8ff1f" stroke="none" /><path d="M 120.73433829027371 96.67025291283417 l 33.6206791235298 -5.399176805783299 a55.05144893991239,55.05144893991239 0 0,0 0.1422007934579785,0.9369255578679361 l -33.708635810427076 4.819652135523281" fill="#8cff24" stroke="none" /><path d="M 120.91429891909075 98.10471618934814 l 19.098340097780348 -1.730719013708162 a40.17659987575732,40.17659987575732 0 0,0 0.056487373795683714,0.68928903757845 l -19.125301955395525 1.4017160589219433" fill="#ffa90f" stroke="none" /><line stroke="#e1ed5e" stroke-width="0.3" x1="184.98032266829074" x2="189.97916517819016" y1="98.17113171792111" y2="98.06355123074" /><path d="M 185.9800911702706 98.14961562048488 a86.0,86.0 0 0,1 -9.607161424134198,41.387399972396054" fill="none" id="id40" stroke="none" /><text fill="#e1ed5e" style="font-size:6.75px; font-family:Arial;" text-anchor="middle"><textPath startOffset="21.466115282336823" xlink:href="#id40">April</textPath></text><path d="M 120.99980553446 99.90962569577887 l 14.474293469219191 -0.062291253089300044 a35.474427506236395,35.474427506236395 0 0,0 -0.0026279839535609914,0.6106509195073788 l -14.473221187976126 -0.18686914462176343" fill="#ff6209" stroke="none" /><path d="M 120.99824983174949 100.27111621757518 l 20.84662848458572 0.26915857793968845 a41.848366015455966,41.848366015455966 0 0,0 -0.015499712743003848,0.7202107462156494 l -20.83890670915771 -0.6279591399454527" fill="#ffc112" stroke="none" /><path d="M 120.95626037817324 101.35467743843564 l 29.479642774781738 1.9056552189880862 a50.54117228449808,50.54117228449808 0 0,0 -0.06359389051881131,0.8676881105479266 l -29.442472325598587 -2.412816466032783" fill="#c5ff1e" stroke="none" /><path d="M 120.8583938346157 102.4346265915055 l 18.643018816650788 2.1760443165873236 a39.769584957205296,39.769584957205296 0 0,0 -0.08521768099778526,0.6792687639766015 l -18.602799626406156 -2.49663083485132" fill="#ffa30f" stroke="none" /><path d="M 120.81339534386255 102.79330883721812 l 18.96910003261127 2.5457910100569983 a40.13916946771985,40.13916946771985 0 0,0 -0.09779803320101653,0.6839992164271073 l -18.92246794839365 -2.8719356984645152" fill="#ffa80f" stroke="none" /><path d="M 120.64145759157962 103.86396538481128 l 28.755368162375607 5.382844051296517 a50.25484931142772,50.25484931142772 0 0,0 -0.16648729689971078,0.8489151400713296 l -28.65845093250023 -5.877022918435792" fill="#c8ff1d" stroke="none" /><path d="M 120.13307415673323 105.97154293290107 l 34.383537297839496 10.19828206863216 a56.864085019184635,56.864085019184635 0 0,0 -0.28641418099832516,0.9360181153161318 l -34.20289634433504 -10.788627156500349" fill="#75ff27" stroke="none" /><path d="M 119.67450827220406 107.3425965602758 l 16.463574419057995 6.144264610160822 a38.572742251894994,38.572742251894994 0 0,0 -0.23750839166358392,0.6200594641361523 l -16.355371747800906 -6.426747641130118" fill="#ff910d" stroke="none" /><path d="M 119.41010516605496 108.01547362559984 l 28.24556924872292 11.66411069988075 a51.55918291779861,51.55918291779861 0 0,0 -0.3458123964046762,0.8173983537701497 l -28.040605871125933 -12.148583579317064" fill="#b7ff1f" stroke="none" /><path d="M 118.81262510543309 109.33194174019688 l 14.441165578463327 7.16349340315278 a37.120263676553414,37.120263676553414 0 0,0 -0.2888687079955618,0.5699653658566718 l -14.315718200681495 -7.4110129807121465" fill="#ff7b0b" stroke="none" /><line stroke="#e1ed5e" stroke-width="0.3" x1="174.80103733775053" x2="179.2010983576182" y1="140.37084112569926" y2="142.7455964860345" /><path d="M 175.68104954172406 140.8457921977663 a86.0,86.0 0 0,1 -30.038265399797805,32.042727171017184" fill="none" id="id41" stroke="none" /><text fill="#e1ed5e" style="font-size:6.75px; font-family:Arial;" text-anchor="middle"><textPath startOffset="22.206326154141568" xlink:href="#id41">May</textPath></text><path d="M 118.12598468904814 110.60418214915192 l 26.589483517124837 15.555553604645098 a51.80545214169791,51.80545214169791 0 0,0 -0.4569219276067946,0.7658274327691592 l -26.317780713819815 -16.010943131300362" fill="#b4ff20" stroke="none" /><path d="M 117.75023020441432 111.22182372390056 l 16.28295440263027 10.294201365635546 a40.26409057896036,40.26409057896036 0 0,0 -0.3754053864717361,0.5826374964643847 l -16.103344152781485 -10.572960462021387" fill="#ffaa0f" stroke="none" /><path d="M 117.35343817320211 111.8261652097733 l 38.231472166964345 26.054301259883484 a67.26523617354758,67.26523617354758 0 0,0 -0.6602854649685599,0.9511904587042249 l -37.77732579483365 -26.708532980774727" fill="#35ff69" stroke="none" /><path d="M 117.14729908036423 112.12312394758627 l 12.2545513301043 8.663955996838943 a36.00793662757551,36.00793662757551 0 0,0 -0.36217161193345887,0.5030246925512373 l -12.103599925795239 -8.873614294841312" fill="#ff6a09" stroke="none" /><path d="M 116.71984013943494 112.70617746262583 l 34.11504030494173 25.9255921494637 a63.84824737732143,63.84824737732143 0 0,0 -0.672514145354183,0.8693151886893807 l -33.66371934236948 -26.50898533226633" fill="#31ff3b" stroke="none" /><path d="M 116.27256486870786 113.27417163493432 l 22.87872893514777 18.66307967579822 a50.52535826494169,50.52535826494169 0 0,0 -0.5555479681041359,0.6691933157946308 l -22.554084967150093 -19.05413424870662" fill="#c5ff1e" stroke="none" /><path d="M 115.32070863581623 114.36230785411682 l 21.525217918648032 20.178688448643303 a50.50448226884683,50.50448226884683 0 0,0 -0.6000255929559303,0.629124435343585 l -21.174685774313136 -20.546220000569395" fill="#c5ff1e" stroke="none" /><path d="M 114.55890576462653 115.13401014063108 l 20.301595219012334 21.103546714480817 a50.28334769740131,50.28334769740131 0 0,0 -0.6289349317607057,0.5946972341188672 l -19.935324452860822 -21.44987858534561" fill="#c8ff1d" stroke="none" /><path d="M 114.29624159901734 115.38237550388516 l 10.225493462551166 11.002358841242335 a36.02040667306115,36.02040667306115 0 0,0 -0.4578029890203239,0.4181921760659631 l -10.034590924063979 -11.176743783894882" fill="#ff6a09" stroke="none" /><path d="M 114.0293411484842 115.62618273729858 l 5.717261873860694 6.368009577384173 a29.557957075842204,29.557957075842204 0 0,0 -0.3815195379936126,0.3366466337633087 l -5.606799982960494 -6.46547935291977" fill="#ff0200" stroke="none" /><path d="M 113.75828350139079 115.86535959552629 l 39.540199753725936 45.59576690714272 a81.35231028233335,81.35231028233335 0 0,0 -1.0658490056612364,0.908339645724864 l -38.74948527148766 -46.26963094309053" fill="#49eeff" stroke="none" /><path d="M 113.20401910651253 116.32954008644616 l 11.995339609305692 14.834754283571202 a40.0776861017397,40.0776861017397 0 0,0 -0.5401756552534941,0.429148209972827 l -11.738206461334848 -15.039036407549155" fill="#ffa80f" stroke="none" /><path d="M 112.04921762599082 117.19931262002967 l 16.83095884782949 24.02487297550736 a50.333866046373664,50.333866046373664 0 0,0 -0.7138854986774481,0.49101695554586106 l -16.41491646452916 -24.311030720418316" fill="#c7ff1e" stroke="none" /><path d="M 111.45004920935366 117.60387380957326 l 8.57670614171526 13.186253601181688 a36.730135799668524,36.730135799668524 0 0,0 -0.5329686091165009,0.34016578287512783 l -8.348455730551828 -13.331933812880623" fill="#ff750a" stroke="none" /><line stroke="#e1ed5e" stroke-width="0.3" x1="143.8653032363475" x2="146.44561519142675" y1="172.8068346515853" y2="177.08958963109032" /><path d="M 144.38136562736335 173.6633856474863 a86.0,86.0 0 0,1 -40.68145358897372,12.25698825130547" fill="none" id="id42" stroke="none" /><text fill="#e1ed5e" style="font-size:6.75px; font-family:Arial;" text-anchor="middle"><textPath startOffset="21.466115282336833" xlink:href="#id42">June</textPath></text><path d="M 110.5260780823613 118.17145234162733 l 14.845517064191352 25.628216293665634 a50.61747537009367,50.61747537009367 0 0,0 -0.7576983713297515,0.4302409099538137 l -14.4021699259404 -25.879960369414075" fill="#c4ff1e" stroke="none" /><path d="M 109.57404056367764 118.69057910512821 l 13.341354180185569 26.045182701681245 a50.26334350898938,50.26334350898938 0 0,0 -0.7734477638918573,0.38782276532756976 l -12.89105250861095 -26.270973307918116" fill="#c8ff1d" stroke="none" /><path d="M 109.2508944713604 118.85261126421891 l 6.536535749752571 13.320957004348266 a35.83826792855179,35.83826792855179 0 0,0 -0.5561541675585032,0.2669877978611856 l -6.306268914193835 -13.431499078709011" fill="#ff6709" stroke="none" /><path d="M 107.59598834532513 119.57807347666477 l 10.59695556517981 27.312834782286895 a50.29652558060249,50.29652558060249 0 0,0 -0.8098453852902053,0.3062142290017444 l -10.125239959129331 -27.49119726139527" fill="#c8ff1d" stroke="none" /><path d="M 106.91757812671514 119.82793768551818 l 8.392032800224815 24.054184914091742 a46.476067718573994,46.476067718573994 0 0,0 -0.7576268892441409,0.2570281755026547 l -7.9767361780434465 -24.19507607649252" fill="#fbff18" stroke="none" /><path d="M 105.53697534728816 120.25689768951611 l 7.07296331367501 25.87627453985106 a47.82551759236598,47.82551759236598 0 0,0 -0.7959750226675607,0.2102242379909053 l -6.626497848195952 -25.99419012714555" fill="#e9ff1a" stroke="none" /><path d="M 104.83641907484287 120.43548508189849 l 3.3341910059858657 14.088070018051118 a35.47724236510213,35.47724236510213 0 0,0 -0.5954768137525915,0.13552858410403093 l -3.091194042840412 -14.143375335732832" fill="#ff6209" stroke="none" /><path d="M 104.13013068566511 120.58985236759428 l 3.7841768215262936 18.865175951581588 a40.2409682163011,40.2409682163011 0 0,0 -0.6803260446560765,0.13038610564797018 l -3.4588831622985126 -18.927519255578023" fill="#ffaa0f" stroke="none" /><path d="M 102.70371172650421 120.8252237178851 l 1.9263948107382474 14.83797348264912 a35.96250159694687,35.96250159694687 0 0,0 -0.6145693153150084,0.07441578536233569 l -1.6706980723718587 -14.868934796736808" fill="#ff6909" stroke="none" /><path d="M 102.34483914955558 120.86867818915974 l 0.939455524954642 8.360997822397445 a29.41361166619322,29.41361166619322 0 0,0 -0.5036274272030595,0.052203042037909216 l -0.7953955011459799 -8.375930232891113" fill="#ff0000" stroke="none" /><path d="M 100.90346689309514 120.98055641714683 l 0.9222713930133559 21.41723968074569 a42.437087956737,42.437087956737 0 0,0 -0.7300788672838949,0.025145392364536494 l -0.5534721740548088 -21.42994187153632" fill="#ffca12" stroke="none" /><line stroke="#e1ed5e" stroke-width="0.3" x1="102.19456741930631" x2="102.32365962044197" y1="184.97166512339345" y2="189.96999836594603" /><path d="M 102.22038585953345 185.97133177190398 a86.0,86.0 0 0,1 -42.740103519485714,-10.115201625700543" fill="none" id="id43" stroke="none" /><text fill="#e1ed5e" style="font-size:6.75px; font-family:Arial;" text-anchor="middle"><textPath startOffset="22.20632615414155" xlink:href="#id43">July</textPath></text><path d="M 100.54218724476979 120.99299961872073 l 0.2908386843294826 11.261010745153943 a32.264765871635994,32.264765871635994 0 0,0 -0.555323189627837,0.009560392319945188 l -0.09695580480897763 -11.264348614753047" fill="#ff2f04" stroke="none" /><path d="M 100.18074693466247 120.99922214144158 l 0.12578181870206356 14.613361810045182 a35.61390312193163,35.61390312193163 0 0,0 -0.6130575067290279,0.0 l 0.12578181870205352 -14.613361810045182" fill="#ff6409" stroke="none" /><path d="M 99.81925306533755 120.99922214144158 l -0.17161906381176759 19.93874392071934 a40.93948249677223,40.93948249677223 0 0,0 -0.7046275832984308,-0.01213080285788622 l 0.5148063370028663 -19.932835640582294" fill="#ffb410" stroke="none" /><path d="M 99.45781275523022 120.99299961872073 l -0.38521828708110656 14.915303581609935 a35.92027727826423,35.92027727826423 0 0,0 -0.6179650068019339,-0.021283964322097386 l 0.6419036455576835 -14.906462818861744" fill="#ff6809" stroke="none" /><path d="M 97.65516085044442 120.86867818915974 l -0.9682896566418603 8.617616795668384 a29.671845483871667,29.671845483871667 0 0,0 -0.50706722150562,-0.06139877891641888 l 1.1164843011988697 -8.599672488026616" fill="#ff0400" stroke="none" /><path d="M 97.2962882734958 120.8252237178851 l -2.1127212163762943 16.27314463788874 a37.40971746690886,37.40971746690886 0 0,0 -0.6378738207942224,-0.08840349924258285 l 2.3925236283573477 -16.234366573153554" fill="#ff7f0b" stroke="none" /><path d="M 96.22490169976321 120.6578951692458 l -2.947315988084179 16.128148162040183 a37.39523817058895,37.39523817058895 0 0,0 -0.6322152672077999,-0.12116556064538939 l 3.224498869863674 -16.075025403046325" fill="#ff7f0b" stroke="none" /><path d="M 95.16358092515715 120.4354850818985 l -3.471437432941526 14.667981987463657 a36.073173966865305,36.073173966865305 0 0,0 -0.6030175823787998,-0.14820705040382054 l 3.7234083000635363 -14.606053678745807" fill="#ff6b09" stroke="none" /><path d="M 94.81253420990036 120.34920634021253 l -4.845425806668665 19.00746405581549 a40.61534708031057,40.61534708031057 0 0,0 -0.6759739034808104,-0.17853085174048494 l 5.171890152960964 -18.92124185477142" fill="#ffaf10" stroke="none" /><path d="M 94.46302465271185 120.25689768951611 l -4.305983479492968 15.75334209128389 a37.33123635156515,37.33123635156515 0 0,0 -0.6183987420395021,-0.1747656615184393 l 4.576513389637085 -15.67688763642693" fill="#ff7e0b" stroke="none" /><path d="M 93.08242187328487 119.8279376855182 l -9.804092394111866 28.101588372782583 a50.76271991511514,50.76271991511514 0 0,0 -0.8225505064926432,-0.2949373466830049 l 10.286362461234235 -27.928663485059623" fill="#c2ff1e" stroke="none" /><path d="M 92.7421414339146 119.70592522655815 l -11.951163509214009 32.448790829767525 a55.57968096350765,55.57968096350765 0 0,0 -0.8949116787811784,-0.3383790223666428 l 12.50794540875547 -32.238263557294246" fill="#85ff25" stroke="none" /><path d="M 92.40401165467489 119.57807347666478 l -5.075411692950098 13.081481767945974 a35.03157044304156,35.03157044304156 0 0,0 -0.5603031516653642,-0.22295618738684156 l 5.29983592065732 -12.992178736153067" fill="#ff5b08" stroke="none" /><path d="M 91.7346041902142 119.30500536409082 l -9.815071555612267 22.92449307820149 a45.93728157867848,45.93728157867848 0 0,0 -0.7242325806250547,-0.3174822801123825 l 10.208224810895066 -22.752146244794655" fill="#fffb17" stroke="none" /><path d="M 91.07499286063937 119.00905698771935 l -9.620319825529329 20.489978881593803 a43.636028541103066,43.636028541103066 0 0,0 -0.6771632819202557,-0.3250795264666007 l 9.971595775449828 -20.321345078627637" fill="#ffdb14" stroke="none" /><path d="M 90.7491055286396 118.85261126421891 l -8.374686875226924 17.066967589674782 a40.01096428288443,40.01096428288443 0 0,0 -0.6156850837075593,-0.30871728238364576 l 8.667225866617246 -16.92028246638183" fill="#ffa70f" stroke="none" /><path d="M 90.42595943632237 118.69057910512821 l -6.766081326683979 13.20884086786661 a35.84093439079645,35.84093439079645 0 0,0 -0.5466751117772902,-0.2859945810204783 l 6.9924473409877645 -13.090416867901414" fill="#ff6709" stroke="none" /><path d="M 90.10565033884886 118.52300852407294 l -8.33259009041435 15.599270549166521 a38.685284823292086,38.685284823292086 0 0,0 -0.5846584247274855,-0.3188023894288929 l 8.599871327010476 -15.453527507977862" fill="#ff930d" stroke="none" /><line stroke="#e1ed5e" stroke-width="0.3" x1="58.666819895761336" x2="56.23545636021788" y1="174.27360380694188" y2="178.64263932499728" /><path d="M 58.180547188652646 175.14741091055294 a86.0,86.0 0 0,1 -31.652253787137756,-30.449443065178592" fill="none" id="id44" stroke="none" /><text fill="#e1ed5e" style="font-size:6.75px; font-family:Arial;" text-anchor="middle"><textPath startOffset="22.20632615414155" xlink:href="#id44">August</textPath></text><path d="M 89.7882731507175 118.34994917583269 l -11.68201775156452 20.991986485365707 a45.02359330636541,45.02359330636541 0 0,0 -0.6739629558806689,-0.38269375570172254 l 12.041629474366395 -20.787789563869353" fill="#ffef16" stroke="none" /><path d="M 89.4739219176387 118.17145234162733 l -7.470272358660369 12.89613254644615 a35.903529909658076,35.903529909658076 0 0,0 -0.5321110500656687,-0.31438058759438064 l 7.69115127975442 -12.76563338655802" fill="#ff6809" stroke="none" /><path d="M 89.1626897886671 117.98757091392108 l -7.620955408674542 12.649123553002331 a35.76750784662477,35.76750784662477 0 0,0 -0.5246255420640374,-0.3222678570184708 l 7.837560150670888 -12.516067229155482" fill="#ff6609" stroke="none" /><path d="M 88.8546689885994 117.79835938074946 l -10.255323782825663 16.37707646959697 a40.32305099050397,40.32305099050397 0 0,0 -0.5851032111331613,-0.37344055254547776 l 10.535708796005748 -16.19812148822769" fill="#ffab0f" stroke="none" /><path d="M 88.54995079064634 117.60387380957326 l -4.832116982806619 7.429136420560873 a29.862359871435608,29.862359871435608 0 0,0 -0.4284897421236195,-0.28397963624804584 l 4.9592814236702 -7.344858763221511" fill="#ff0701" stroke="none" /><path d="M 88.24862548938628 117.40417183066458 l -11.898619195833717 17.622246048315162 a42.26312993316887,42.26312993316887 0 0,0 -0.5994182040420236,-0.4122853065270973 l 12.200194284498634 -17.41481995242296" fill="#ffc812" stroke="none" /><path d="M 87.95078237400918 117.19931262002967 l -8.557271221243264 12.214833151579283 a35.91405510499537,35.91405510499537 0 0,0 -0.5032630935013997,-0.35906485474937005 l 8.766261642593548 -12.065724034985696" fill="#ff6809" stroke="none" /><path d="M 87.65650970185807 116.9893568818739 l -11.36658042267536 15.64475579135196 a40.33798164949454,40.33798164949454 0 0,0 -0.558229701443965,-0.4129649877409089 l 11.63419509453789 -15.446780854871282" fill="#ffab0f" stroke="none" /><path d="M 87.07902340077011 116.55440617244103 l -9.81169800950076 12.570786181927438 a36.94660098771456,36.94660098771456 0 0,0 -0.497974218054003,-0.3956208359486451 l 10.02662972027212 -12.400031431973662" fill="#ff780b" stroke="none" /><path d="M 86.79598089348748 116.32954008644616 l -8.871453235881459 10.971413330423553 a35.10937961015392,35.10937961015392 0 0,0 -0.4666703151170471,-0.38403789858802523 l 9.058993679543194 -10.817080312978348" fill="#ff5c08" stroke="none" /><path d="M 86.51685102203217 116.09983520530335 l -12.054642833107282 14.394097653964321 a39.77510215965937,39.77510215965937 0 0,0 -0.5211192274665127,-0.44410911108716805 l 12.300627537150852 -14.184464152654202" fill="#ffa30f" stroke="none" /><path d="M 86.24171649860922 115.8653595955263 l -9.634875101635492 11.110452705090562 a35.70622240876867,35.70622240876867 0 0,0 -0.46087831584356703,-0.40667152832900894 l 9.824695770385645 -10.942958034989264" fill="#ff6509" stroke="none" /><path d="M 85.44109423537348 115.13401014063109 l -10.73330636442895 11.157292312203861 a36.48189385226027,36.48189385226027 0 0,0 -0.4488142387691743,-0.4392591955111268 l 10.923770555573917 -10.970883013770163" fill="#ff710a" stroke="none" /><path d="M 84.9287848128048 114.62390073753433 l -14.006943207724973 13.591216405700553 a40.517059753226576,40.517059753226576 0 0,0 -0.4813686174198735,-0.5047130708783655 l 14.238818376523804 -13.348096218239688" fill="#ffae10" stroke="none" /><path d="M 84.43433777217949 114.09645910891817 l -11.958772352177604 10.83001436032938 a37.13386027013213,37.13386027013213 0 0,0 -0.4249902235391154,-0.4774810214366229 l 12.143421425365057 -10.622559169151891" fill="#ff7b0b" stroke="none" /><path d="M 83.95833913139862 113.55231037782056 l -6.691067177474751 5.652745054938417 a29.759218380061697,29.759218380061697 0 0,0 -0.32721536019038283,-0.394151980452734 l 6.78737853755867 -5.536731817371922" fill="#ff0600" stroke="none" /><path d="M 83.50135304334701 112.99209946851258 l -23.351732796555435 18.38866157037418 a50.7228245453133,50.7228245453133 0 0,0 -0.5342639524222538,-0.6906081780113106 l 23.664803566195758 -17.983975398249616" fill="#c2ff1e" stroke="none" /><path d="M 82.85270091963577 112.12312394758628 l -11.948830836204847 8.447811901871573 a35.63352603720794,35.63352603720794 0 0,0 -0.3497839396154577,-0.5038898531350275 l 12.092475682982435 -8.240880786549535" fill="#ff6409" stroke="none" /><path d="M 82.44556493220864 111.52570212397912 l -12.09966352996476 7.94426691079461 a35.47457198981391,35.47457198981391 0 0,0 -0.33074993663744967,-0.5133312466540979 l 12.234618329979256 -7.734814064219064" fill="#ff6209" stroke="none" /><line stroke="#e1ed5e" stroke-width="0.3" x1="26.63291911575756" x2="22.317208475507996" y1="142.92168965132927" y2="145.44649492493687" /><path d="M 25.769776987707644 143.4266507060508 a86.0,86.0 0 0,1 -11.730757126820373,-40.83630448921669" fill="none" id="id45" stroke="none" /><text fill="#e1ed5e" style="font-size:6.75px; font-family:Arial;" text-anchor="middle"><textPath startOffset="21.46611528233685" xlink:href="#id45">September</textPath></text><path d="M 81.51974371655577 109.97397251340807 l -13.143346375205239 7.093590774384359 a35.93541375433073,35.93541375433073 0 0,0 -0.2891046676045289,-0.5468770791691239 l 13.263503551034654 -6.866298680129109" fill="#ff6909" stroke="none" /><path d="M 80.73074385275274 108.34839909993369 l -13.258951714133417 5.744436615014254 a35.44985649000148,35.44985649000148 0 0,0 -0.23776559540429765,-0.562007632714302 l 13.35586829073002 -5.515354456633793" fill="#ff6109" stroke="none" /><line stroke="#e1ed5e" stroke-width="0.3" x1="15.007084014347285" x2="10.007500721073583" y1="101.09737516637583" y2="101.16192664675087" /><path d="M 14.007167355692545 101.11028546245083 a86.0,86.0 0 0,1 10.666146001902534,-42.60595125391555" fill="none" id="id46" stroke="none" /><text fill="#e1ed5e" style="font-size:6.75px; font-family:Arial;" text-anchor="middle"><textPath startOffset="22.20632615414155" xlink:href="#id46">October</textPath></text><path d="M 79.03285615573316 98.82574320788736 l -13.069781875343155 -0.7319680855220021 a34.090262623311695,34.090262623311695 0 0,0 0.03785546556571295,-0.5856072970759065 l 13.05524581877303 0.9568344468509205" fill="#ff4c07" stroke="none" /><path d="M 80.52162464483688 92.15188598940014 l -27.474229786529772 -11.06975729682453 a50.620479891008515,50.620479891008515 0 0,0 0.33259659163678107,-0.8054090279734637 l 27.27961150800679 11.541040895251307" fill="#c4ff1e" stroke="none" /><line stroke="#e1ed5e" stroke-width="0.3" x1="26.266209847984257" x2="21.92892807433627" y1="57.711370442889674" y2="55.22380399835377" /><path d="M 25.39875349325466 57.213857153982495 a86.0,86.0 0 0,1 29.58750427330802,-30.492523968695096" fill="none" id="id47" stroke="none" /><text fill="#e1ed5e" style="font-size:6.75px; font-family:Arial;" text-anchor="middle"><textPath startOffset="21.46611528233685" xlink:href="#id47">November</textPath></text><line stroke="#e1ed5e" stroke-width="0.3" x1="56.762969772571076" x2="54.21961505331055" y1="26.818313649435495" y2="22.513508569990535" /><path d="M 56.25429882871897 25.957352633546506 a86.0,86.0 0 0,1 42.265352541879196,-11.944610805530505" fill="none" id="id48" stroke="none" /><text fill="#e1ed5e" style="font-size:6.75px; font-family:Arial;" text-anchor="middle"><textPath startOffset="22.20632615414155" xlink:href="#id48">December</textPath></text><path d="M 91.23893434514133 80.91482961587045 l -13.21813896963042 -28.79449194135375 a52.683465151102844,52.683465151102844 0 0,0 0.8274261365698218,-0.3712419885859126 l 12.720530714593824 29.01775426045619" fill="#a9ff21" stroke="none" /><path d="M 95.692805502759 79.44645832069477 l -3.9301834816849626 -18.75447929037621 a40.16185887780357,40.16185887780357 0 0,0 0.6778434211682896,-0.13596901346653284 l 3.6067736510495365 18.819352259919953" fill="#ffa90f" stroke="none" /></svg>