<?xml version="1.0" encoding="utf-8" ?>
<svg baseProfile="full" height="200mm" version="1.1" viewBox="0,0,200,200" width="200mm" xmlns="http://www.w3.org/2000/svg" xmlns:ev="http://www.w3.org/2001/xml-events" xmlns:xlink="http://www.w3.org/1999/xlink"><defs /><rect fill="#1a1a1a" height="200" width="200" x="0" y="0" /><text alignment-baseline="middle" fill="#e1ed5e" style="dominant-baseline: central; font-size:9.0px; font-family:Arial;" text-anchor="middle" x="100.0" y="100.0">2023</text><line stroke="#e1ed5e" stroke-width="0.3" x1="100.0" x2="100.0" y1="15.0" y2="10.0" /><path d="M 100.0 14.0 a86.0,86.0 0 0,1 42.46469731375804,11.215312516191453" fill="none" id="id49" stroke="none" /><text fill="#e1ed5e" style="font-size:6.75px; font-family:Arial;" text-anchor="middle"><textPath startOffset="22.20632615414155" xlink:href="#id49">January</textPath></text><path d="M 100.0 79.0 l 0.0 -59.665329615345186 a80.66532961534519,80.66532961534519 0 0,0 1.388521048096736,0.01195143903270838 l -1.0270405688242075 59.65648955292104" fill="#49f2ff" stroke="none" /><path d="M 108.76106565485865 80.91482961587045 l 6.536662503876293 -14.239514066516001 a36.66817530984669,36.66817530984669 0 0,0 0.5713631387270454,0.26826265477560535 l -6.7808038539029365 14.124886429100394" fill="#ffb510" stroke="none" /><line stroke="#e1ed5e" stroke-width="0.3" x1="143.23703022742887" x2="145.7803849466894" y1="26.81831364943548" y2="22.513508569990506" /><path d="M 143.74570117128098 25.957352633546492 a86.0,86.0 0 0,1 28.547481713284135,27.462654790039103" fill="none" id="id50" stroke="none" /><text fill="#e1ed5e" style="font-size:6.75px; font-family:Arial;" text-anchor="middle"><textPath startOffset="19.985693538727396" xlink:href="#id50">February</textPath></text><path d="M 111.60114157652 82.49532879139004 l 3.4072066422070146 -5.141048544079276 a27.167611955633983,27.167611955633983 0 0,0 0.3875851907663167,0.2616992509484279 l -3.495196527379873 5.081637380832179" fill="#ff3004" stroke="none" /><path d="M 112.48926042617603 83.11751280151076 l 11.860347445551882 -16.032347559948473 a40.942517639761405,40.942517639761405 0 0,0 0.5629671163474457,0.42401516050058646 l -12.134560715657711 15.82581580994204" fill="#ffec16" stroke="none" /><path d="M 113.89432698308785 84.25364557470405 l 10.833547478909665 -12.277592034059904 a37.37391270077501,37.37391270077501 0 0,0 0.47872246985976924,0.42980176016223787 l -11.043280936365424 12.089291265128372" fill="#ffbe11" stroke="none" /><path d="M 115.68641384162765 86.03803664274999 l 9.971224263424686 -8.875060239926206 a34.34885791271404,34.34885791271404 0 0,0 0.38930036476354435,0.4450376142973702 l -10.122516491766076 8.702107069425889" fill="#ff950d" stroke="none" /><path d="M 117.2510076193507 88.02491185347247 l 8.382340582558836 -5.818748073460946 a31.203992492373672,31.203992492373672 0 0,0 0.3024937830906573,0.44387230091320284 l -8.481258831318225 5.673597749277337" fill="#ff6a09" stroke="none" /><line stroke="#e1ed5e" stroke-width="0.3" x1="172.23445277983987" x2="176.4835382374775" y1="55.19839476539836" y2="52.563006222186495" /><path d="M 173.08426987136738 54.67131705675599 a86.0,86.0 0 0,1 12.851231095245387,41.99856678651699" fill="none" id="id51" stroke="none" /><text fill="#e1ed5e" style="font-size:6.75px; font-family:Arial;" text-anchor="middle"><textPath startOffset="22.20632615414155" xlink:href="#id51">March</textPath></text><path d="M 118.89224826269711 90.83032412892265 l 2.71561509031104 -1.3180702382535638 a24.018588158675318,24.018588158675318 0 0,0 0.17732787092819186,0.37349772042008256 l -2.737901155080988 1.2711301021929409" fill="#ff0100" stroke="none" /><path d="M 119.04729006885535 91.15688171328212 l 3.9253750235947686 -1.8224406478765083 a25.327800710625915,25.327800710625915 0 0,0 0.1801864163134098,0.3970168837320197 l -3.9561637568715255 1.7546017553024258" fill="#ff1402" stroke="none" /><path d="M 119.196687751892 91.48605970444005 l 3.748105214977238 -1.6623255237689607 a25.100197415919546,25.100197415919546 0 0,0 0.17176816921192273,0.3964646168526503 l -3.7761640940318415 1.5975617623297078" fill="#ff1101" stroke="none" /><path d="M 119.34039704204932 91.81776055985345 l 4.037615973944072 -1.7081728257358615 a25.384084528796265,25.384084528796265 0 0,0 0.16678348396292778,0.40387943556351025 l -4.066421144793197 1.6384188197190481" fill="#ff1502" stroke="none" /><path d="M 119.47837535516314 92.15188598940014 l 13.915085700866449 -5.606585613862302 a36.00211359469144,36.00211359469144 0 0,0 0.22665293500523467,0.576806997370902 l -14.009532185753384 5.366229611595616" fill="#ffac0f" stroke="none" /><path d="M 120.08093135843002 93.85539295169968 l 14.741329681961597 -4.510730934154323 a36.41601421744994,36.41601421744994 0 0,0 0.17825483391667912,0.6009866847423196 l -14.816790412989977 4.256314862665474" fill="#ffb110" stroke="none" /><path d="M 120.37134235888165 94.90015583598534 l 29.34937208798182 -7.347440405424786 a51.25509085212066,51.25509085212066 0 0,0 0.2068928820910323,0.8577045656225749 l -29.47149777033367 6.841150608142804" fill="#96ff23" stroke="none" /><path d="M 120.53481517161879 95.60439243477599 l 15.658333923017635 -3.3517657926596462 a37.01304952760617,37.01304952760617 0 0,0 0.12799589128704053,0.624153422731175 l -15.713709110219673 3.0817367137650593" fill="#ffb911" stroke="none" /><path d="M 120.78858239683441 97.02765380044208 l 32.157882446618984 -4.597925815787861 a53.48492458446,53.48492458446 0 0,0 0.12246519829098738,0.9125079740317487 l -32.23226364396781 4.043699499691448" fill="#7dff26" stroke="none" /><path d="M 120.91429891909075 98.10471618934814 l 4.390480572277316 -0.3978716562199968 a25.40847156170569,25.40847156170569 0 0,0 0.03572372562938328,0.43591993755736896 l -4.3966787817261945 0.3222378014548591" fill="#ff1602" stroke="none" /><path d="M 120.94382443527127 98.46500227214037 l 10.375039964965044 -0.7603989816613433 a31.402867916393703,31.402867916393703 0 0,0 0.03487125336079538,0.5394428551094381 l -10.386591809330254 0.58169706229887" fill="#ff6c0a" stroke="none" /><path d="M 120.98425023603335 99.18683210126433 l 2.968172817583534 -0.11502068580054145 a23.970400584635648,23.970400584635648 0 0,0 0.012428430742195103,0.41243910997191024 l -2.9697129427813738 0.06391142840363215" fill="#ff0000" stroke="none" /><line stroke="#e1ed5e" stroke-width="0.3" x1="184.98032266829074" x2="189.97916517819016" y1="98.17113171792111" y2="98.06355123074" /><path d="M 185.9800911702706 98.14961562048488 a86.0,86.0 0 0,1 -9.607161424134198,41.387399972396054" fill="none" id="id52" stroke="none" /><text fill="#e1ed5e" style="font-size:6.75px; font-family:Arial;" text-anchor="middle"><textPath startOffset="21.466115282336823" xlink:href="#id52">April</textPath></text><path d="M 120.99513854157772 99.54816195383933 l 12.116706382848408 -0.260764601628454 a33.11951202588709,33.11951202588709 0 0,0 0.007360406042359488,0.570071559432793 l -12.119399796008484 0.052156784135198295" fill="#ff840c" stroke="none" /><path d="M 120.99980553446 99.90962569577887 l 20.47788704257531 -0.08812818720415014 a41.47807667496764,41.47807667496764 0 0,0 -0.0030727407766404286,0.7139967419210298 l -20.476370004509167 -0.2643780329205644" fill="#fff316" stroke="none" /><path d="M 120.9904718944345 100.63252640178507 l 16.303130457564414 0.49127816173060956 a37.31053086041524,37.31053086041524 0 0,0 -0.024869897820722662,0.6417815558460988 l -16.29225842689249 -0.7718369645907145" fill="#ffbd11" stroke="none" /><path d="M 120.9764740272857 100.99374915477107 l 62.788263747644784 2.9745601642869857 a83.85868335094816,83.85868335094816 0 0,0 -0.08071857144237403,1.4412843167728062 l -62.72775882531488 -4.054916197395215" fill="#4dd3ff" stroke="none" /><path d="M 120.89721153311464 102.0752229133903 l 13.513164631070035 1.3419411881998708 a34.579632708545155,34.579632708545155 0 0,0 -0.06391913127069859,0.591811770634481 l -13.488063198298285 -1.5743492807191433" fill="#ff980e" stroke="none" /><path d="M 120.64145759157962 103.86396538481128 l 16.585485129689395 3.104710030631019 a37.87357523945204,37.87357523945204 0 0,0 -0.125469865136186,0.6397681391930943 l -16.529585331577543 -3.3897418968920583" fill="#ffc512" stroke="none" /><path d="M 120.13307415673323 105.97154293290107 l 19.332030057804403 5.733950343182196 a41.164463114447955,41.164463114447955 0 0,0 -0.20733800579368633,0.6775925994304952 l -19.230465279504585 -6.065869915164748" fill="#ffef16" stroke="none" /><path d="M 119.79798401119884 107.00284435728193 l 22.06358732057713 7.804222282526461 a44.40315728460189,44.40315728460189 0 0,0 -0.26108155521035087,0.7183843098727023 l -21.925981504361552 -8.182854389405295" fill="#e6ff1a" stroke="none" /><path d="M 119.12269723197855 108.67885076344098 l 14.435452321490821 6.551541076092435 a36.852601496213836,36.852601496213836 0 0,0 -0.2671381611052455,0.5753918332942218 l -14.320539543545744 -6.799052976665488" fill="#ffb711" stroke="none" /><line stroke="#e1ed5e" stroke-width="0.3" x1="174.80103733775053" x2="179.2010983576182" y1="140.37084112569926" y2="142.7455964860345" /><path d="M 175.68104954172406 140.8457921977663 a86.0,86.0 0 0,1 -30.038265399797805,32.042727171017184" fill="none" id="id53" stroke="none" /><text fill="#e1ed5e" style="font-size:6.75px; font-family:Arial;" text-anchor="middle"><textPath startOffset="22.206326154141568" xlink:href="#id53">May</textPath></text><path d="M 118.12598468904814 110.60418214915192 l 17.955879218574385 10.504665933927452 a41.802922989220704,41.802922989220704 0 0,0 -0.3687000375865669,0.6179624705816246 l -17.772398305289588 -10.81219049839518" fill="#fff717" stroke="none" /><path d="M 117.14729908036423 112.12312394758627 l 3.8470207855714054 2.719839993100079 a25.711379682501196,25.711379682501196 0 0,0 -0.2586077597546481,0.3591835598253531 l -3.7996332334411544 -2.785657158376563" fill="#ff1a02" stroke="none" /><path d="M 116.0416608686014 113.55231037782055 l 12.787168345583073 10.802851131953448 a37.73957188453246,37.73957188453246 0 0,0 -0.4235053714372436,0.49263242482809894 l -12.59932046457505 -11.021360655943074" fill="#ffc312" stroke="none" /><path d="M 115.56566222782051 114.09645910891815 l 14.840742759104058 13.439962938150932 a41.02199414196224,41.02199414196224 0 0,0 -0.47849927696438577,0.5193164603898883 l -14.60719707414395 -13.693430653342157" fill="#ffed16" stroke="none" /><path d="M 115.32070863581623 114.36230785411682 l 3.1463795776607197 2.9495549582234966 a25.312722909984046,25.312722909984046 0 0,0 -0.3007313587047911,0.3153156272938456 l -3.095141667576964 -3.003277702099849" fill="#ff1402" stroke="none" /><path d="M 114.29624159901734 115.38237550388516 l 11.29627764633753 12.154494126907567 a37.59330033911806,37.59330033911806 0 0,0 -0.47779375226371934,0.4364532643123832 l -11.085384344606947 -12.347140157806534" fill="#ffc111" stroke="none" /><path d="M 113.75828350139079 115.86535959552629 l 2.059923539088899 2.3754000768795644 a24.14417087832897,24.14417087832897 0 0,0 -0.31632833085958934,0.26958186615512164 l -2.0187297316522623 -2.410506333257633" fill="#ff0300" stroke="none" /><path d="M 113.20401910651253 116.32954008644616 l 9.708300321658667 12.00635033885945 a36.440322004250696,36.440322004250696 0 0,0 -0.49115048125096183,0.3901996467375589 l -9.500192347690355 -12.171683899602135" fill="#ffb110" stroke="none" /><path d="M 112.04921762599082 117.19931262002967 l 8.965319232301686 12.797289666518187 a36.62522229428598,36.62522229428598 0 0,0 -0.5194557290242651,0.3572863870731094 l -8.743706618654539 -12.949716842956393" fill="#ffb410" stroke="none" /><line stroke="#e1ed5e" stroke-width="0.3" x1="143.8653032363475" x2="146.44561519142675" y1="172.8068346515853" y2="177.08958963109032" /><path d="M 144.38136562736335 173.6633856474863 a86.0,86.0 0 0,1 -40.68145358897372,12.25698825130547" fill="none" id="id54" stroke="none" /><text fill="#e1ed5e" style="font-size:6.75px; font-family:Arial;" text-anchor="middle"><textPath startOffset="21.466115282336833" xlink:href="#id54">June</textPath></text><path d="M 109.2508944713604 118.85261126421891 l 8.744645964498085 17.820915752772557 a40.85079019363788,40.85079019363788 0 0,0 -0.6339407155374717,0.30433006797182643 l -8.436592580960381 -17.968800097243943" fill="#ffeb16" stroke="none" /><path d="M 107.93186726928326 119.44442032107085 l 11.444697872072624 28.055879948222316 a51.300387935669846,51.300387935669846 0 0,0 -0.8205104332603625,0.326498034799767 l -10.960066362770394 -28.248724827428152" fill="#95ff23" stroke="none" /><path d="M 105.53697534728816 120.25689768951611 l 4.827460673415099 17.661154480203077 a39.30903476775787,39.30903476775787 0 0,0 -0.654232539770786,0.17278875998048737 l -4.522737690832816 -17.74163458948715" fill="#ffd714" stroke="none" /><path d="M 105.18746579009965 120.34920634021253 l 4.588955610320161 18.001391889407902 a39.5770994385434,39.5770994385434 0 0,0 -0.6615909884424744,0.16260296853038267 l -4.278411337134476 -18.077716116252315" fill="#ffdb14" stroke="none" /><path d="M 103.7750983002368 120.6578951692458 l 9.021015387441468 49.36432785928493 a71.18182523204422,71.18182523204422 0 0,0 -1.2072133461375874,0.20988951437321368 l -8.169953069831829 -49.512295952179144" fill="#3dffa9" stroke="none" /><path d="M 101.62511606390274 120.93702456842531 l 1.1949765497229434 15.395364021051764 a36.4416709683597,36.4416709683597 0 0,0 -0.6258201719348498,0.04316022312266359 l -0.9297936170091633 -15.413652588690713" fill="#ffb210" stroke="none" /><line stroke="#e1ed5e" stroke-width="0.3" x1="102.19456741930631" x2="102.32365962044197" y1="184.97166512339345" y2="189.96999836594603" /><path d="M 102.22038585953345 185.97133177190398 a86.0,86.0 0 0,1 -42.740103519485714,-10.115201625700543" fill="none" id="id55" stroke="none" /><text fill="#e1ed5e" style="font-size:6.75px; font-family:Arial;" text-anchor="middle"><textPath startOffset="22.20632615414155" xlink:href="#id55">July</textPath></text><path d="M 100.54218724476979 120.99299961872073 l 0.38420340048592505 14.876008090778251 a35.88096868385405,35.88096868385405 0 0,0 -0.6175632594306514,0.01063191156576393 l -0.12808045116260575 -14.880417479623175" fill="#ffaa0f" stroke="none" /><path d="M 100.18074693466247 120.99922214144158 l 0.27267643147472126 31.67961308979483 a52.68078657412694,52.68078657412694 0 0,0 -0.9068467322743317,0.0 l 0.27267643147469944 -31.67961308979483" fill="#86ff25" stroke="none" /><path d="M 99.81925306533755 120.99922214144158 l -0.03501918905966044 4.068537768844005 a25.06868847666082,25.06868847666082 0 0,0 -0.4314683112851614,-0.0074281182679852556 l 0.10504719023748975 -4.06733217329686" fill="#ff1101" stroke="none" /><path d="M 98.73552117531835 120.96189622390904 l -0.9347634448654726 15.496039904113806 a36.52420804446218,36.52420804446218 0 0,0 -0.6272375978043254,-0.04325797710939949 l 1.201363803448728 -15.477653582488122" fill="#ffb310" stroke="none" /><path d="M 97.65516085044442 120.86867818915974 l -2.187808865456515 19.471134794578976 a40.593662185013656,40.593662185013656 0 0,0 -0.6937120074341533,-0.08399886320721804 l 2.5226482959420573 -19.43059040264641" fill="#ffe815" stroke="none" /><path d="M 96.58105272829116 120.7198165907248 l -3.423061634456265 20.74475082771045 a42.02527140983155,42.02527140983155 0 0,0 -0.7127306493703695,-0.12391735922558515 l 3.779641255298684 -20.68275488996386" fill="#fffa17" stroke="none" /><path d="M 96.22490169976321 120.6578951692458 l -3.517950313079376 19.25074342399262 a40.569545134767196,40.569545134767196 0 0,0 -0.6858810659494133,-0.13145073869989687 l 3.8487989936004845 -19.187335486944257" fill="#ffe815" stroke="none" /><path d="M 95.51606077576429 120.51570834832081 l -3.952235860141391 18.08296548538884 a39.50983006512895,39.50983006512895 0 0,0 -0.6631628094700017,-0.15093369636262677 l 4.2629188190042555 -18.012255055448527" fill="#ffda14" stroke="none" /><path d="M 94.46302465271185 120.25689768951611 l -5.619476170945433 20.55872506625256 a42.31289958653174,42.31289958653174 0 0,0 -0.7009209025368363,-0.19808724836656744 l 5.9725282415868834 -20.458949024547472" fill="#fffe18" stroke="none" /><path d="M 93.42475214034765 119.94407469862007 l -6.668644403507754 20.227365562630716 a42.29828950373091,42.29828950373091 0 0,0 -0.6895230829576544,-0.23392366677532295 l 7.015837219402634 -20.10957890895727" fill="#fffd18" stroke="none" /><path d="M 92.7421414339146 119.70592522655815 l -5.401549805362398 14.665832297888386 a36.62892757963888,36.62892757963888 0 0,0 -0.5897776760138512,-0.22300345179877307 l 5.6531977021365325 -14.57068059598298" fill="#ffb410" stroke="none" /><path d="M 92.06813273071674 119.44442032107085 l -5.877605685056421 14.408541083930649 a36.561243676400835,36.561243676400835 0 0,0 -0.5806770591594098,-0.2427230578229381 l 6.124754203713294 -14.305232983087738" fill="#ffb310" stroke="none" /><path d="M 91.7346041902142 119.30500536409082 l -1.4851933168646725 3.4688798466056023 a24.773450222097278,24.773450222097278 0 0,0 -0.3905703421872355,-0.17121456021055906 l 1.5446843337096512 -3.442800733100591" fill="#ff0c01" stroke="none" /><path d="M 91.40352486487194 119.15986991738527 l -12.568368347249116 28.012446825217108 a51.702785867861394,51.702785867861394 0 0,0 -0.8088580888369736,-0.3713070766010569 l 13.048694431853509 -27.791952678281977" fill="#91ff24" stroke="none" /><path d="M 91.07499286063937 119.00905698771935 l -6.588196460387734 14.031966586278038 a36.50162633013352,36.50162633013352 0 0,0 -0.5664484580180632,-0.27192968286477914 l 6.82875758640604 -13.916482626913696" fill="#ffb210" stroke="none" /><path d="M 90.7491055286396 118.85261126421891 l -6.846915023710975 13.95348608729519 a36.5428446344374,36.5428446344374 0 0,0 -0.562317973608307,-0.28195790549684846 l 7.086086905002042 -13.83356034088904" fill="#ffb310" stroke="none" /><path d="M 90.42595943632237 118.69057910512821 l -7.08698727007262 13.835318046474598 a36.54481952334208,36.54481952334208 0 0,0 -0.5574113408978002,-0.2916112686708043 l 7.324089513496916 -13.711277358859077" fill="#ffb310" stroke="none" /><path d="M 90.10565033884886 118.52300852407294 l -7.336470459792751 13.734455473806266 a36.57109713441473,36.57109713441473 0 0,0 -0.5527062845428269,-0.30137953497676706 l 7.571799556204218 -13.606135287069732" fill="#ffb310" stroke="none" /><line stroke="#e1ed5e" stroke-width="0.3" x1="58.666819895761336" x2="56.23545636021788" y1="174.27360380694188" y2="178.64263932499728" /><path d="M 58.180547188652646 175.14741091055294 a86.0,86.0 0 0,1 -31.652253787137756,-30.449443065178592" fill="none" id="id56" stroke="none" /><text fill="#e1ed5e" style="font-size:6.75px; font-family:Arial;" text-anchor="middle"><textPath startOffset="22.20632615414155" xlink:href="#id56">August</textPath></text><path d="M 89.7882731507175 118.34994917583269 l -7.278406291235011 13.078922644176249 a35.9677458447368,35.9677458447368 0 0,0 -0.5384050122551256,-0.3057204174661313 l 7.5024600704113436 -12.951699060915484" fill="#ffab0f" stroke="none" /><path d="M 89.4739219176387 118.17145234162733 l -7.6869793367633905 13.270239644444587 a36.3358700941556,36.3358700941556 0 0,0 -0.5385185813066757,-0.3181662699934373 l 7.914265789098449 -13.1359548021574" fill="#ffb010" stroke="none" /><path d="M 88.8546689885994 117.79835938074946 l -8.401584306926562 13.416776649287899 a36.83024050743613,36.83024050743613 0 0,0 -0.5344211675049686,-0.3410928743640657 l 8.631287276478455 -13.27016934610003" fill="#ffb710" stroke="none" /><path d="M 88.54995079064634 117.60387380957326 l -8.85629455162662 13.616106695845954 a37.242915832381584,37.242915832381584 0 0,0 -0.5343920396664108,-0.35416590438362655 l 9.089361290032992 -13.46164277037101" fill="#ffbc11" stroke="none" /><path d="M 88.24862548938628 117.40417183066458 l -9.431294180646525 13.968056618165482 a37.85395845521679,37.85395845521679 0 0,0 -0.5368829007455888,-0.36927295469247046 l 9.670333966015006 -13.803642874107908" fill="#ffc412" stroke="none" /><path d="M 87.95078237400918 117.19931262002967 l -9.550114150121368 13.632038520957463 a37.6444331389572,37.6444331389572 0 0,0 -0.5275108538769017,-0.3763649879593228 l 9.783352331847155 -13.465629271153924" fill="#ffc112" stroke="none" /><path d="M 87.65650970185807 116.9893568818739 l -12.152458663669849 16.726424393948463 a41.67499757143102,41.67499757143102 0 0,0 -0.5767324120013184,-0.4266528506739027 l 12.438576046089732 -16.51476159453479" fill="#fff617" stroke="none" /><path d="M 87.36589467227662 116.77436683061367 l -10.545136259503272 14.000831820482208 a38.52778338515506,38.52778338515506 0 0,0 -0.5263102003822356,-0.4035522186348262 l 10.784575188378994 -13.817240260020014" fill="#ffcd13" stroke="none" /><path d="M 87.07902340077011 116.55440617244103 l -13.045886030712616 16.71444062863354 a42.20301082050514,42.20301082050514 0 0,0 -0.5688212379767734,-0.45190599335267195 l 13.331664761406747 -16.487400721275737" fill="#fffc17" stroke="none" /><path d="M 86.79598089348748 116.32954008644616 l -11.363409869980128 14.053240569686574 a39.0726493459771,39.0726493459771 0 0,0 -0.519349694731478,-0.42738944161679643 l 11.603629693256295 -13.855556009212597" fill="#ffd413" stroke="none" /><path d="M 86.51685102203217 116.09983520530335 l -12.834462681049727 15.325257805217825 a40.989671310645605,40.989671310645605 0 0,0 -0.5370320800627417,-0.457670389291639 l 13.096360237689524 -15.102063025703234" fill="#ffed16" stroke="none" /><path d="M 86.24171649860922 115.8653595955263 l -15.020597659271626 17.32099670572824 a43.92673724980432,43.92673724980432 0 0,0 -0.5669846687344051,-0.5002980479810651 l 15.31652468091262 -17.059875515974888" fill="#ecff1a" stroke="none" /><path d="M 85.97065885151581 115.62618273729859 l -13.11559768336733 14.608435559451163 a40.63225132496494,40.63225132496494 0 0,0 -0.5164174373718591,-0.4717350848999305 l 13.365114670206045 -14.380507707964654" fill="#ffe815" stroke="none" /><path d="M 85.70375840098266 115.38237550388516 l -12.749733683005916 13.718374142474644 a39.72830740084358,39.72830740084358 0 0,0 -0.4969144149765621,-0.46986359519428267 l 12.983983932373294 -13.496875910534433" fill="#ffdd14" stroke="none" /><path d="M 85.44109423537348 115.13401014063109 l -14.410398849350274 14.979636920687236 a41.785791235191695,41.785791235191695 0 0,0 -0.514064816934614,-0.5031206196722435 l 14.666113618660683 -14.729366198092421" fill="#fff717" stroke="none" /><path d="M 85.18274418774928 114.88116024355367 l -17.00136817896292 17.074692334165142 a45.09546924762103,45.09546924762103 0 0,0 -0.5453531991882504,-0.5524399115406295 l 17.292762003206704 -16.77951192864385" fill="#deff1b" stroke="none" /><path d="M 84.9287848128048 114.62390073753433 l -12.13353025814514 11.773406449782494 a37.906674893576906,37.906674893576906 0 0,0 -0.45035557356929484,-0.47219601838954917 l 12.334392383093391 -11.562803314810445" fill="#ffc512" stroke="none" /><path d="M 84.67929136418377 114.36230785411682 l -16.99814477966146 15.934810463245922 a44.299251285178755,44.299251285178755 0 0,0 -0.5167267012097312,-0.5608047794002294 l 17.26991788886692 -15.639854429044352" fill="#e8ff1a" stroke="none" /><path d="M 84.43433777217949 114.09645910891817 l -11.77130546921389 10.660241997849925 a36.88094430134015,36.88094430134015 0 0,0 -0.4220956466399835,-0.4742289336052492 l 11.953059965502211 -10.45603889450381" fill="#ffb711" stroke="none" /><path d="M 84.19399662182784 113.82643327865904 l -3.0566772324484686 2.6738539020692187 a25.061129201709743,25.061129201709743 0 0,0 -0.28123061023797097,-0.32713473500287416 l 3.1022503522572182 -2.6208420679048143" fill="#ff1001" stroke="none" /><path d="M 83.95833913139862 113.55231037782056 l -11.792667126771711 9.962676956794786 a36.43767890935331,36.43767890935331 0 0,0 -0.4006478959411716,-0.4826062002638071 l 11.96241102260642 -9.758209499417218" fill="#ffb110" stroke="none" /><path d="M 83.72743513129214 113.27417163493432 l -12.85414230639599 10.485629805236716 a37.58847210702504,37.58847210702504 0 0,0 -0.40467048841065917,-0.5048886552243673 l 13.03273070686151 -10.26281331643409" fill="#ffc111" stroke="none" /><path d="M 83.50135304334701 112.99209946851258 l -13.226677790519808 10.415539767829575 a37.83533409319427,37.83533409319427 0 0,0 -0.3985199033186365,-0.5151406960629211 l 13.404004511056513 -10.186321077653401" fill="#ffc412" stroke="none" /><path d="M 83.28015986056508 112.70617746262583 l -13.795748447776587 10.484025358218439 a38.327361684517854,38.327361684517854 0 0,0 -0.3946600067418796,-0.5287115734473021 l 13.974169721213553 -10.245000905261831" fill="#ffca12" stroke="none" /><path d="M 83.06392112726016 112.41649034213515 l -28.650183737996137 21.004550838258897 a56.52497972044377,56.52497972044377 0 0,0 -0.5685341882150814,-0.7896442620254279 l 29.007497718586826 -20.50827297078233" fill="#5cff2a" stroke="none" /><line stroke="#e1ed5e" stroke-width="0.3" x1="26.63291911575756" x2="22.317208475507996" y1="142.92168965132927" y2="145.44649492493687" /><path d="M 25.769776987707644 143.4266507060508 a86.0,86.0 0 0,1 -11.730757126820373,-40.83630448921669" fill="none" id="id57" stroke="none" /><text fill="#e1ed5e" style="font-size:6.75px; font-family:Arial;" text-anchor="middle"><textPath startOffset="21.46611528233685" xlink:href="#id57">September</textPath></text><path d="M 81.87401531095188 110.60418214915194 l -12.918673016561778 7.557766606507557 a35.96702871605724,35.96702871605724 0 0,0 -0.3080284913768146,-0.5370736385142824 l 13.046853504090967 -7.3342731221349675" fill="#ffab0f" stroke="none" /><path d="M 81.51974371655577 109.97397251340807 l -20.41629729478024 11.018872515644249 a44.200016093633884,44.200016093633884 0 0,0 -0.35559437406852923,-0.6726505464989031 l 20.602944177073656 -10.665806954059219" fill="#e9ff1a" stroke="none" /><path d="M 81.35079622478065 109.6543875284942 l -13.843425478671637 7.166514769414292 a36.58843683387684,36.58843683387684 0 0,0 -0.28473004846825284,-0.5617993979745662 l 13.964734196926157 -6.9271611597370395" fill="#ffb310" stroke="none" /><path d="M 81.18737489456691 109.33194174019688 l -14.470253500672682 7.177922372734637 a37.15273369936911,37.15273369936911 0 0,0 -0.2792589534431428,-0.5753561578626485 l 14.591665710730544 -6.927777258906705" fill="#ffbb11" stroke="none" /><path d="M 81.02952815118164 109.00673069616217 l -13.90436757498927 6.601464383511275 a36.39190597902615,36.39190597902615 0 0,0 -0.26379865864696467,-0.5681988420951591 l 14.015940850476062 -6.361145474137289" fill="#ffb110" stroke="none" /><path d="M 80.45479744820244 107.68017299344265 l -28.507135393250746 11.201712071667519 a51.62899152217832,51.62899152217832 0 0,0 -0.3179011401255123,-0.8299395621932424 l 28.69573081296977 -10.70934894264112" fill="#92ff23" stroke="none" /><path d="M 79.86692584326677 105.97154293290107 l -22.15009883054454 6.569799778458706 a44.10387732247396,44.10387732247396 0 0,0 -0.2096138904121371,-0.7296934512836168 l 22.259905357842783 -6.187548851670494" fill="#eaff1a" stroke="none" /><path d="M 79.76711848015287 105.62410040840567 l -23.466580677397648 6.5229663823304 a45.356303067457205,45.356303067457205 0 0,0 -0.2026172400373201,-0.7540141256422584 l 23.57538599377674 -6.1180613235126025" fill="#dbff1b" stroke="none" /><path d="M 79.4281124754447 104.21870165774334 l -21.84144850913339 4.479052052127566 a43.29598125812796,43.29598125812796 0 0,0 -0.14343353895296435,-0.7313645249735234 l 21.91531198106202 -4.102423800086087" fill="#f4ff19" stroke="none" /><path d="M 79.35854240842038 103.8639653848113 l -3.5505683449023264 0.6646465309070952 a24.612241766946017,24.612241766946017 0 0,0 -0.07436830010098748,-0.4170969212989012 l 3.561483087342503 -0.6034308588749804" fill="#ff0a01" stroke="none" /><path d="M 79.23777060512086 103.15116336523772 l -3.6110761829088527 0.5480669132512053 a24.652430497651157,24.652430497651157 0 0,0 -0.06006500005522179,-0.4200944704891873 l 3.6199752339806737 -0.48582697078161735" fill="#ff0a01" stroke="none" /><path d="M 79.18660465613746 102.79330883721812 l -33.85336540708064 4.543367538014761 a55.15688126821315,55.15688126821315 0 0,0 -0.11818935293906596,-0.9420854304659741 l 33.92655626926655 -3.959964353261378" fill="#6bff28" stroke="none" /><path d="M 79.10278846688536 102.07522291339032 l -3.7171738628351747 0.3691384547161831 a24.73545776649867,24.73545776649867 0 0,0 -0.03842877599539864,-0.4240583408909731 l 3.7229772351076487 -0.3050987252766438" fill="#ff0c01" stroke="none" /><path d="M 79.0095281055655 100.63252640178507 l -43.746776269609036 1.3182643593091077 a64.76663403672086,64.76663403672086 0 0,0 -0.023988134268603686,-1.1146343398983143 l 43.762986466562644 -0.5650402036206646" fill="#34ff5f" stroke="none" /><line stroke="#e1ed5e" stroke-width="0.3" x1="15.007084014347285" x2="10.007500721073583" y1="101.09737516637583" y2="101.16192664675087" /><path d="M 14.007167355692545 101.11028546245083 a86.0,86.0 0 0,1 10.666146001902534,-42.60595125391555" fill="none" id="id58" stroke="none" /><text fill="#e1ed5e" style="font-size:6.75px; font-family:Arial;" text-anchor="middle"><textPath startOffset="22.20632615414155" xlink:href="#id58">October</textPath></text><path d="M 79.08570108090925 98.10471618934814 l -33.243681185029494 -3.0125901422851626 a54.37990470473632,54.37990470473632 0 0,0 0.09250507148474653,-0.931513445726425 l 33.18689898786252 3.584379118716018" fill="#73ff27" stroke="none" /><path d="M 79.3925641242962 95.95851677861259 l -29.63032613419989 -5.811031835202347 a51.19477302131586,51.19477302131586 0 0,0 0.17703811725142848,-0.8633007335255726 l 29.525908721033467 6.3202082248913225" fill="#96ff23" stroke="none" /><path d="M 79.62865764111835 94.90015583598534 l -29.969530155809334 -7.5026932821012196 a51.894386937520736,51.894386937520736 0 0,0 0.22439050901278523,-0.8646681658756598 l 29.83594331492624 8.017457873525743" fill="#8fff24" stroke="none" /><path d="M 79.91906864156998 93.8553929516997 l -28.924507469247768 -8.850671778704294 a51.2483309171419,51.2483309171419 0 0,0 0.26537975967959987,-0.8413263597432717 l 28.767872225799966 9.34724830487398" fill="#96ff23" stroke="none" /><path d="M 80.2630227832202 92.82701384747504 l -28.53392144374708 -10.370049128861806 a51.35988458299762,51.35988458299762 0 0,0 0.3091263688750904,-0.8283049806240346 l 28.35119048637036 10.859677246515181" fill="#95ff23" stroke="none" /><path d="M 80.38941819471856 92.48833698450439 l -28.350131120309676 -10.859271465547696 a51.35875016039378,51.35875016039378 0 0,0 0.32333133529613284,-0.8228429808940171 l 28.15900623513185 11.345663451337476" fill="#95ff23" stroke="none" /><path d="M 80.803312248108 91.48605970444005 l -28.672962555862135 -12.71677147915144 a52.36646391582627,52.36646391582627 0 0,0 0.3725442084688903,-0.8208517807550415 l 28.449816030429893 13.208445268748552" fill="#89ff24" stroke="none" /><path d="M 81.26839172434947 90.50648371742162 l -27.266087687930533 -13.81894408736181 a51.568002118155334,51.568002118155334 0 0,0 0.4081007382293655,-0.788320730403079 l 27.024177516541055 14.286237540025226" fill="#92ff23" stroke="none" /><path d="M 81.43458229118936 90.18545643968196 l -27.420098320181584 -14.49553969711712 a52.015842129452544,52.015842129452544 0 0,0 0.42527137171226664,-0.7879632642549896 l 27.166518849250846 14.965383944704582" fill="#8dff24" stroke="none" /><line stroke="#e1ed5e" stroke-width="0.3" x1="26.266209847984257" x2="21.92892807433627" y1="57.711370442889674" y2="55.22380399835377" /><path d="M 25.39875349325466 57.213857153982495 a86.0,86.0 0 0,1 29.58750427330802,-30.492523968695096" fill="none" id="id59" stroke="none" /><text fill="#e1ed5e" style="font-size:6.75px; font-family:Arial;" text-anchor="middle"><textPath startOffset="21.46611528233685" xlink:href="#id59">November</textPath></text><path d="M 81.96595687620814 89.24020034530311 l -28.310480047067895 -16.891114840070074 a53.96654426893824,53.96654426893824 0 0,0 0.4828314804390891,-0.793648001852152 l 28.015532768342585 17.375930615129302" fill="#78ff26" stroke="none" /><path d="M 82.54541684631803 88.32363383020206 l -28.01913400405561 -18.74359676833512 a54.710447789241364,54.710447789241364 0 0,0 0.5303670781998711,-0.778248243398233 l 27.692342460186996 19.22312303500377" fill="#6fff27" stroke="none" /><path d="M 82.7489923806493 88.02491185347247 l -24.895544160941437 -17.28167666267967 a51.30584873160282,51.30584873160282 0 0,0 0.5098515790731767,-0.721148901121676 l 24.594379962064384 17.707652064133132" fill="#95ff23" stroke="none" /><path d="M 82.95767976084542 87.72973835380427 l -24.535214106350537 -17.66505337334794 a51.2329429915067,51.2329429915067 0 0,0 0.5214473994401294,-0.7112536668219609 l 24.227504094396778 18.084769483841402" fill="#96ff23" stroke="none" /><path d="M 83.17141714833178 87.43820079747576 l -25.032693647263784 -18.68580817927041 a52.23772044420414,52.23772044420414 0 0,0 0.5440783947140132,-0.7159433912910903 l 24.707339312325658 19.113936346442525" fill="#8bff24" stroke="none" /><path d="M 83.39014120810768 87.1503855733568 l -24.963247120018522 -19.311910134108075 a52.561267081709175,52.561267081709175 0 0,0 0.5597672810302234,-0.7108476016509858 l 24.627125758394328 19.73875012971211" fill="#87ff25" stroke="none" /><path d="M 83.6137871275137 86.86637796730984 l -24.027340757468266 -19.25801980084727 a51.79260350352534,51.79260350352534 0 0,0 0.5635565714211931,-0.6908537208833024 l 23.692285693970682 19.668757691338655" fill="#90ff24" stroke="none" /><path d="M 83.84228863543731 86.58626213691792 l -26.659583248478015 -22.132135744075836 a55.649167545220024,55.649167545220024 0 0,0 0.6182076265036485,-0.7317628370572558 l 26.27466500848724 22.587757530762207" fill="#65ff29" stroke="none" /><path d="M 84.07557802195018 86.31012108654704 l -27.605917278191537 -23.732206126801177 a57.40472876447967,57.40472876447967 0 0,0 0.6506091673834841,-0.7437587474859284 l 27.19331624723021 24.20388043049005" fill="#53ff2b" stroke="none" /><path d="M 88.09926311788651 82.69761687909137 l -20.021692257949752 -29.10937310920989 a56.330210354358734,56.330210354358734 0 0,0 0.8036317421551437,-0.5426157396379592 l 19.517655821388068 29.449700761146516" fill="#5eff2a" stroke="none" /><path d="M 88.39885842347998 82.49532879139004 l -16.725397978285024 -25.236533018059383 a51.275758228385,51.275758228385 0 0,0 0.7399164533863485,-0.48126224339763135 l 16.288514499114388 25.52069418561655" fill="#96ff23" stroke="none" /><path d="M 88.70189139769569 82.29822771554957 l -16.63040601566713 -26.056366658331818 a51.911238210064695,51.911238210064695 0 0,0 0.7573623411526699,-0.47426022854924926 l 16.179424522142217 26.338771228204" fill="#8eff24" stroke="none" /><path d="M 89.00827224532344 82.1063720568725 l -16.016440498197813 -26.07344665410379 a51.59985272279439,51.59985272279439 0 0,0 0.7608224657409364,-0.45838702270824716 l 15.565255966239226 26.345280286270658" fill="#92ff23" stroke="none" /><line stroke="#e1ed5e" stroke-width="0.3" x1="56.762969772571076" x2="54.21961505331055" y1="26.818313649435495" y2="22.513508569990535" /><path d="M 56.25429882871897 25.957352633546506 a86.0,86.0 0 0,1 42.265352541879196,-11.944610805530505" fill="none" id="id60" stroke="none" /><text fill="#e1ed5e" style="font-size:6.75px; font-family:Arial;" text-anchor="middle"><textPath startOffset="22.20632615414155" xlink:href="#id60">December</textPath></text><path d="M 89.3179101791058 81.91981866633112 l -16.147064136119965 -27.33003115330402 a52.7436337405871,52.7436337405871 0 0,0 0.7856371893194273,-0.45509176942554364 l 15.674230214335218 27.60392708011961" fill="#85ff25" stroke="none" /><path d="M 89.63071344664047 81.73862282372117 l -18.589759177709457 -32.73847262426725 a58.64819698279227,58.64819698279227 0 0,0 0.882169173629604,-0.4909261900205772 l 18.023465915007808 33.053614211848014" fill="#46ff2c" stroke="none" /><path d="M 89.94658935756843 81.56283822128135 l -14.989363051676634 -27.489308989060422 a52.31043138302324,52.31043138302324 0 0,0 0.7942590554627692,-0.4242656804952023 l 14.51395894968556 27.743253396057376" fill="#8aff24" stroke="none" /><path d="M 90.26544431104013 81.39251694778311 l -14.56917753091323 -27.848803032547373 a52.429552403317594,52.429552403317594 0 0,0 0.8032694583896554,-0.4114658157422117 l 14.08764758493481 28.095461373602088" fill="#89ff25" stroke="none" /><path d="M 92.23578459929587 80.48803036053334 l -12.101846919288132 -30.412714934365223 a53.732062699085205,53.732062699085205 0 0,0 0.8623147480421229,-0.33456472537693993 l 11.576549006246331 30.616522363632715" fill="#7aff26" stroke="none" /><path d="M 92.57280143429618 80.3572730644239 l -10.74198008264802 -28.409336258382023 a51.37236445747723,51.37236445747723 0 0,0 0.829829237658543,-0.30563311144665883 l 10.251368519216909 28.590032637635005" fill="#94ff23" stroke="none" /><path d="M 94.63758080256005 79.69619591428918 l -12.925523639752306 -48.94009401802153 a71.61819795147376,71.61819795147376 0 0,0 1.1946294357523544,-0.30453764270723177 l 12.081185315314952 49.15533465689762" fill="#3dffae" stroke="none" /><path d="M 94.98787191387505 79.60689891045804 l -8.244867527672996 -33.5463128779917 a55.544651514481785,55.544651514481785 0 0,0 0.9304425104150145,-0.2202056808233986 l 7.666201330295448 33.683264470955976" fill="#67ff29" stroke="none" /><path d="M 95.33964822691252 79.52364482259891 l -6.755231177319818 -29.68070215021885 a51.43973108273198,51.43973108273198 0 0,0 0.8650626333072895,-0.1890691857697771 l 6.243325819859007 29.792584834084494" fill="#94ff23" stroke="none" /><path d="M 95.692805502759 79.44645832069477 l -6.746328942302844 -32.19287013547788 a53.892154714422354,53.892154714422354 0 0,0 0.9095804712850146,-0.1824532856509681 l 6.191182061550693 32.30422737720606" fill="#78ff26" stroke="none" /><path d="M 96.04723909329186 79.375362276772 l -5.917983454764007 -30.87873708713979 a52.44072092474285,52.44072092474285 0 0,0 0.888008391129531,-0.16227785747213286 l 5.385579942531583 30.97603042596266" fill="#88ff25" stroke="none" /><path d="M 96.40284397218896 79.31037775812273 l -5.448955527099828 -31.340545307701895 a52.810704118589186,52.810704118589186 0 0,0 0.8969540839210298,-0.14800510924612406 l 4.908672237039912 31.42969667988765" fill="#84ff25" stroke="none" /><path d="M 96.75951476605007 79.25152402106235 l -5.630626556180557 -36.052291991121656 a57.4893369798392,57.4893369798392 0 0,0 0.9790461999324228,-0.14428596003649088 l 5.009211375819485 36.14387243531912" fill="#52ff2b" stroke="none" /><path d="M 97.11714578562143 79.19881850522333 l -8.648562643135705 -62.403544484330034 a84.0,84.0 0 0,0 1.433941085968569,-0.1861667073434532 l 7.573106828659279 62.54316951483762" fill="#4dd2ff" stroke="none" /></svg>