<?xml version="1.0" encoding="utf-8" ?>
<svg baseProfile="full" height="200mm" version="1.1" viewBox="0,0,200,200" width="200mm" xmlns="http://www.w3.org/2000/svg" xmlns:ev="http://www.w3.org/2001/xml-events" xmlns:xlink="http://www.w3.org/1999/xlink"><defs /><rect fill="#1a1a1a" height="200" width="200" x="0" y="0" /><text alignment-baseline="middle" fill="#e1ed5e" style="dominant-baseline: central; font-size:9.0px; font-family:Arial;" text-anchor="middle" x="100.0" y="100.0">2024</text><line stroke="#e1ed5e" stroke-width="0.3" x1="100.0" x2="100.0" y1="15.0" y2="10.0" /><path d="M 100.0 14.0 a86.0,86.0 0 0,1 42.35913384403234,11.155469271406648" fill="none" id="id61" stroke="none" /><text fill="#e1ed5e" style="font-size:6.75px; font-family:Arial;" text-anchor="middle"><textPath startOffset="22.145653131862478" xlink:href="#id61">January</textPath></text><path d="M 100.0 79.0 l 0.0 -47.691497843981296 a68.6914978439813,68.6914978439813 0 0,0 1.1791809033345533,0.010121849852449776 l -0.8186879784856985 47.684470392323284" fill="#39ff8e" stroke="none" /><path d="M 102.15924093988457 79.11130261209362 l 2.4306329071072517 -23.514168483839878 a44.639460565239666,44.639460565239666 0 0,0 0.7615579091634467,0.08533415217955291 l -2.833926717871495 23.468978571153354" fill="#e1ff1b" stroke="none" /><path d="M 104.64783097203109 79.52079915486377 l 5.817609814275047 -25.63346226274462 a47.285337576806995,47.285337576806995 0 0,0 0.7900430740598455,0.1864480143023604 l -6.256785042074778 25.529818104796032" fill="#c1ff1e" stroke="none" /><path d="M 107.06938296918511 80.22567764915836 l 10.507524159769398 -29.3914151702107 a52.21319191745422,52.21319191745422 0 0,0 0.8414052653157944,0.3089756681012714 l -11.010518576739317 29.20670865310071" fill="#89ff24" stroke="none" /><line stroke="#e1ed5e" stroke-width="0.3" x1="143.13028292997686" x2="145.6673583964461" y1="26.7553504044142" y2="22.446841604673864" /><path d="M 143.63769802327073 25.89364864446614 a86.0,86.0 0 0,1 29.32050498858742,28.57503671076993" fill="none" id="id62" stroke="none" /><text fill="#e1ed5e" style="font-size:6.75px; font-family:Arial;" text-anchor="middle"><textPath startOffset="20.669276256404974" xlink:href="#id62">February</textPath></text><path d="M 111.27062007382361 82.28071324371311 l 12.954791481446597 -20.36708394250568 a45.13803493760074,45.13803493760074 0 0,0 0.650233528586162,0.42147351733092914 l -13.302510642289766 20.141696583470857" fill="#dbff1b" stroke="none" /><path d="M 111.5731344415666 82.4767994020092 l 1.4279708490533263 -2.162129867443022 a23.591120666706832,23.591120666706832 0 0,0 0.33600913139826505,0.22608193921583764 l -1.4648762685485923 2.1372982541700654" fill="#ff0000" stroke="none" /><path d="M 112.7482090630111 83.31218511350987 l 38.24462718903332 -50.063444659470385 a84.0,84.0 0 0,0 1.138360221459096,0.8851957935168366 l -39.09839735512764 49.399547814332756" fill="#4dd2ff" stroke="none" /><path d="M 113.86319453409587 84.22622945171908 l 26.022237146776988 -29.608529036845297 a60.418546622735995,60.418546622735995 0 0,0 0.7731703098110281,0.6913736586377426 l -26.526672483411392 29.157459848324173" fill="#32ff2f" stroke="none" /><path d="M 115.16444852881244 85.47280134310134 l 11.338687811471171 -10.862206431894345 a36.7020180185571,36.7020180185571 0 0,0 0.4319376020663361,0.45870276505911145 l -11.523481247273768 10.66596220689074" fill="#ffb911" stroke="none" /><path d="M 116.57777611688842 87.10902102172516 l 19.055982872162478 -14.818047540475517 a45.139283670729384,45.139283670729384 0 0,0 0.4704115702372455,0.6157838458548249 l -19.30754641975403 14.48874278137981" fill="#dbff1b" stroke="none" /><path d="M 117.01052211995028 87.68569379921539 l 27.937554885654823 -20.22463525441658 a55.48974984199169,55.48974984199169 0 0,0 0.5519509965876936,0.7763881994176124 l -28.28062098077248 19.742069828289466" fill="#65ff29" stroke="none" /><path d="M 117.21940702142032 87.97951657250589 l 2.130308342964495 -1.487120671472749 a23.598026467845486,23.598026467845486 0 0,0 0.22902476119288165,0.3341539710683274 l -2.1555228409727016 1.4503319653343727" fill="#ff0000" stroke="none" /><line stroke="#e1ed5e" stroke-width="0.3" x1="172.87174338648825" x2="177.1583165268699" y1="56.24261187166439" y2="53.66864786411523" /><path d="M 173.72905801456457 55.72781907015455 a86.0,86.0 0 0,1 12.242430191666344,42.057860355516425" fill="none" id="id63" stroke="none" /><text fill="#e1ed5e" style="font-size:6.75px; font-family:Arial;" text-anchor="middle"><textPath startOffset="22.145653131862474" xlink:href="#id63">March</textPath></text><path d="M 118.00360718960297 89.18935116829356 l 2.5519395875345467 -1.5323663991346035 a23.976666329910483,23.976666329910483 0 0,0 0.20885536262795446,0.35468206588580536 l -2.577868660292269 1.4883331649552416" fill="#ff0600" stroke="none" /><path d="M 118.18653347947321 89.5 l 16.67553807641203 -9.627626397298341 a40.25525279459668,40.25525279459668 0 0,0 0.34038046566430397,0.6014196682025365 l -16.838351907097707 9.339949958996687" fill="#ffe715" stroke="none" /><path d="M 118.53625476483649 90.13048839642627 l 34.677682064531986 -18.46391247115327 a60.28686418017061,60.28686418017061 0 0,0 0.4785397050303754,0.9176629822209676 l -34.9895298385373 17.865903245827806" fill="#34ff2f" stroke="none" /><path d="M 118.70294669586156 90.45014215332178 l 4.941682929675808 -2.5232585147773916 a26.548609168958098,26.548609168958098 0 0,0 0.20376700618858767,0.4076705104832374 l -4.984269849076132 2.4380561481304053" fill="#ff2c04" stroke="none" /><path d="M 119.16976305983485 91.42560881287824 l 26.454461215853264 -11.832744014688977 a49.98020616107212,49.98020616107212 0 0,0 0.34359277806978494,0.7862075169249955 l -26.65368787594002 11.376874427988131" fill="#a2ff22" stroke="none" /><path d="M 119.4528033332814 92.08871423366111 l 24.614153510673237 -10.010361950573506 a47.57186292732366,47.57186292732366 0 0,0 0.30115554723277665,0.7591087083905648 l -24.78236773287214 9.586352224969374" fill="#beff1f" stroke="none" /><path d="M 119.58574465831526 92.42381321644754 l 34.05658971929945 -13.173820522299158 a57.51576167167328,57.51576167167328 0 0,0 0.3482971467465856,0.9238995619356425 l -34.277717549860476 12.587252680169358" fill="#50ff2b" stroke="none" /><path d="M 119.71291397450082 92.76114493625339 l 2.443031020135762 -0.8971148300994713 a23.60254021750481,23.60254021750481 0 0,0 0.13640001272987498,0.38153511164078263 l -2.45807120290958 0.8550447620777719" fill="#ff0000" stroke="none" /><path d="M 119.83427380445688 93.10060997987247 l 24.837389278968555 -8.639733292319065 a47.29716520002543,47.29716520002543 0 0,0 0.26016724280491177,0.7691382246632209 l -24.982041943345834 8.212093393181682" fill="#c1ff1e" stroke="none" /><path d="M 120.35273937422433 94.82641323984039 l 23.403279266256877 -5.949022071670832 a45.14755358258132,45.14755358258132 0 0,0 0.18448682117426576,0.752769186673085 l -23.501953613947435 5.546397060389652" fill="#daff1b" stroke="none" /><path d="M 120.43855184770803 95.1765574152323 l 24.0894250618867 -5.6850387225015 a45.751162903762655,45.751162903762655 0 0,0 0.17383075575362264,0.7659303837774014 l -24.18346667919799 5.270674004785072" fill="#d3ff1c" stroke="none" /><path d="M 120.51834098615036 95.52812308129327 l 25.34165628171365 -5.523096038051399 a46.93654049687537,46.93654049687537 0 0,0 0.1648194258202096,0.7887206178535098 l -25.432733418358225 5.087258968912486" fill="#c5ff1e" stroke="none" /><path d="M 120.592083275326 95.88100663000786 l 25.91092633393806 -5.182910944602127 a47.42420612511266,47.42420612511266 0 0,0 0.15282723162198183,0.7996566544873223 l -25.9960798578422 4.73735172508149" fill="#bfff1e" stroke="none" /><path d="M 120.65975698304385 96.23510406497455 l 26.676066803013782 -4.861267998048689 a48.115391692315754,48.115391692315754 0 0,0 0.14110453232399514,0.8138534453745329 l -26.755586152830013 4.402621519753564" fill="#b7ff1f" stroke="none" /><path d="M 120.7213421655516 96.59031103205396 l 27.43276442876097 -4.514050947361446 a48.801676571013985,48.801676571013985 0 0,0 0.12892591415765897,0.8277968541026038 l -27.506211835056895 4.042465911327402" fill="#afff20" stroke="none" /><path d="M 120.77682067341334 96.94652285012252 l 28.50856788551122 -4.189777732717873 a49.81479967538175,49.81479967538175 0 0,0 0.11707778669922418,0.8471165423214001 l -28.576290188765658 3.699772882196388" fill="#a4ff21" stroke="none" /><path d="M 120.82617615685814 97.30363454192243 l 24.116308692821182 -3.122338985606125 a45.31759333709811,45.31759333709811 0 0,0 0.09326342094106416,0.7723549143790869 l -24.16635420002191 2.707890394303625" fill="#d8ff1c" stroke="none" /><path d="M 120.86939407059847 97.66154086499901 l 24.04694040925103 -2.694509829974416 a45.197432224719606,45.197432224719606 0 0,0 0.0797790799305907,0.7717902285813408 l -24.089651881663286 2.281315079110144" fill="#daff1c" stroke="none" /><path d="M 120.9064616781168 98.02013634271609 l 24.890605855719244 -2.35716625320195 a46.00196977459974,46.00196977459974 0 0,0 0.06770258259528111,0.7868066343951042 l -24.927402061012266 1.9295385714311837" fill="#d0ff1d" stroke="none" /><path d="M 120.93736805541906 98.37931529534042 l 27.63134300055081 -2.138840701069142 a48.71399927038027,48.71399927038027 0 0,0 0.05738054179795566,0.8343004844444396 l -27.663987503513834 1.6641967924703682" fill="#b0ff20" stroke="none" /><path d="M 120.96210409425399 98.7389718711861 l 29.705798615902506 -1.787027078727401 a50.759501628701045,50.759501628701045 0 0,0 0.044857889057390576,0.8702310638320075 l -29.732098094416468 1.276824221518663" fill="#99ff23" stroke="none" /><path d="M 120.98066250479742 99.09900007780936 l 31.166960072167136 -1.3384433686743855 a52.19568609265084,52.19568609265084 0 0,0 0.030758950133848332,0.8955132721885611 l -31.185343709297833 0.8032238319217043" fill="#89ff24" stroke="none" /><path d="M 120.99303781780057 99.45929381324524 l 24.12748865022982 -0.6214385215355825 a45.13549034933861,45.13549034933861 0 0,0 0.01330114615974435,0.7747250807460735 l -24.13460122798823 0.20716652482044265" fill="#dbff1b" stroke="none" /><line stroke="#e1ed5e" stroke-width="0.3" x1="184.99686870605535" x2="189.99668451229388" y1="99.2704041080226" y2="99.22748670261217" /><path d="M 185.99683186730306 99.26182062694052 a86.0,86.0 0 0,1 -10.086455211305974,41.156179273409016" fill="none" id="id64" stroke="none" /><text fill="#e1ed5e" style="font-size:6.75px; font-family:Arial;" text-anchor="middle"><textPath startOffset="21.40746469413373" xlink:href="#id64">April</textPath></text><path d="M 120.99922638620191 99.81974689727618 l 24.600526447251628 -0.21116593245884455 a45.60143273333807,45.60143273333807 0 0,0 0.0,0.7828380703653399 l -24.600526447251628 -0.21116593245884158" fill="#d5ff1c" stroke="none" /><path d="M 120.99922638620191 100.18025310272382 l 25.94496196060349 0.2227062943863175 a46.94591777584137,46.94591777584137 0 0,0 -0.013834667777099298,0.8058000402364015 l -25.93731586122772 -0.6680532505917901" fill="#c5ff1e" stroke="none" /><path d="M 120.99303781780057 100.54070618675476 l 26.649587915988096 0.6863988521194972 a47.65842605024103,47.65842605024103 0 0,0 -0.028085139981400505,0.8176682069826875 l -26.63387808900985 -1.1437733236662955" fill="#bdff1f" stroke="none" /><path d="M 120.98066250479742 100.90099992219065 l 29.330258590148116 1.2595675041964114 a50.357291756267045,50.357291756267045 0 0,0 -0.04450244258418821,0.86333549721017 l -29.304314558107357 -1.762874794783312" fill="#9eff22" stroke="none" /><path d="M 120.96210409425399 101.26102812881392 l 30.6350609960561 1.8429291959553908 a51.690443956602884,51.690443956602884 0 0,0 -0.06088651567169067,0.8852765751130287 l -30.59891051921934 -2.368549195222763" fill="#8fff24" stroke="none" /><path d="M 120.93736805541906 101.62068470465957 l 24.069896366921938 1.863162207463547 a45.14189894199879,45.14189894199879 0 0,0 -0.06643678861151762,0.7720961895933832 l -24.034365955612678 -2.276079444432588" fill="#daff1b" stroke="none" /><path d="M 120.9064616781168 101.97986365728391 l 25.97798174025628 2.460141880008049 a47.094210725117904,47.094210725117904 0 0,0 -0.08312712950211347,0.8041795710800929 l -25.9319222182725 -2.905725973371073" fill="#c3ff1e" stroke="none" /><path d="M 120.86939407059847 102.33845913500097 l 24.11849502583844 2.7025276740116797 a45.26943464813699,45.26943464813699 0 0,0 -0.09316431055699895,0.7715341382224171 l -24.068548629021773 -3.116155489157505" fill="#d9ff1c" stroke="none" /><path d="M 120.82617615685814 102.69636545807757 l 27.237092391995198 3.5263869157305128 a48.46442438227166,48.46442438227166 0 0,0 -0.11390405215526075,0.8241529801553371 l -27.172543823284727 -3.993428204085935" fill="#b3ff20" stroke="none" /><path d="M 120.77682067341334 103.0534771498775 l 24.74397497666884 3.63651221599469 a46.00976846640313,46.00976846640313 0 0,0 -0.12155015721808747,0.7804392035395464 l -24.677903327312485 -4.060739601465687" fill="#d0ff1d" stroke="none" /><path d="M 120.7213421655516 103.40968896794604 l 31.049791019185687 5.10923129637578 a52.46734445063596,52.46734445063596 0 0,0 -0.15386718969953442,0.887465061572439 l -30.957509011993917 -5.6414893908688075" fill="#86ff25" stroke="none" /><path d="M 120.16314734710363 105.8691983318838 l 25.436191447536313 7.404104619351601 a47.491896885085886,47.491896885085886 0 0,0 -0.2345730626156793,0.780817434693667 l -25.305342064917006 -7.839659657635992" fill="#bfff1e" stroke="none" /><path d="M 120.05942366710727 106.21446072829308 l 27.020930630036908 8.37115338052538 a49.28792853910566,49.28792853910566 0 0,0 -0.2573188597207239,0.8060476631207186 l -26.873247054538933 -8.833770077337482" fill="#aaff21" stroke="none" /><path d="M 119.83427380445688 106.89939002012753 l 12.626683360249029 4.392215919870829 a34.368795509198144,34.368795509198144 0 0,0 -0.19861862756146542,0.5555716507935781 l -12.54942456264362 -4.6083225270453285" fill="#ff9a0e" stroke="none" /><path d="M 119.16976305983485 108.57439118712176 l 22.029917718175696 9.853701986099072 a45.133228493105605,45.133228493105605 0 0,0 -0.3224135916767747,0.7045318842029501 l -21.857519661643863 -10.23042285251671" fill="#dbff1b" stroke="none" /><path d="M 119.0197475246899 108.90220220490707 l 22.20086824593308 10.39112732665042 a45.512325022158564,45.512325022158564 0 0,0 -0.3372696091389515,0.7047637666264536 l -22.019219378834215 -10.770703595341976" fill="#d6ff1c" stroke="none" /><line stroke="#e1ed5e" stroke-width="0.3" x1="174.33088141563837" x2="178.70328620479359" y1="141.23008692659167" y2="143.65538615756765" /><path d="M 175.20536237346943 141.71514677278685 a86.0,86.0 0 0,1 -30.301960400862466,31.631185727798858" fill="none" id="id65" stroke="none" /><text fill="#e1ed5e" style="font-size:6.75px; font-family:Arial;" text-anchor="middle"><textPath startOffset="22.145653131862474" xlink:href="#id65">May</textPath></text><path d="M 118.00360718960297 110.81064883170644 l 13.876925723400571 8.332695180440993 a37.18650291146673,37.18650291146673 0 0,0 -0.33331862561001924,0.5444509250667675 l -13.731839133335148 -8.569683221632317" fill="#ffbf11" stroke="none" /><path d="M 117.81537515405839 111.11811171558189 l 21.060940731310797 13.143584676779637 a45.82573347644461,45.82573347644461 0 0,0 -0.4222127950456779,0.6637886414930546 l -20.83221024463923 -13.503186992951367" fill="#d2ff1c" stroke="none" /><path d="M 117.62189284568427 111.42229804090321 l 24.16145635783409 15.661164100713858 a49.79319423615605,49.79319423615605 0 0,0 -0.4710805144189305,0.7132759403812965 l -23.889051404494435 -16.073619919434215" fill="#a4ff21" stroke="none" /><path d="M 116.57777611688842 112.89097897827486 l 22.83660562580713 17.757882660601894 a49.9284108290855,49.9284108290855 0 0,0 -0.531936265104086,0.6720840939722211 l -22.528402930061482 -18.1472866984888" fill="#a2ff22" stroke="none" /><path d="M 116.35404254752997 113.17365903436017 l 20.551466578156138 16.554806713375495 a47.38985418357387,47.38985418357387 0 0,0 -0.5157667575939733,0.6291515817629298 l -20.26425300132354 -16.90516057683692" fill="#c0ff1e" stroke="none" /><path d="M 115.16444852881244 114.52719865689866 l 22.176761839929704 21.244836184004487 a51.710777101697516,51.710777101697516 0 0,0 -0.6195768591207479,0.6357404392000742 l -21.808798179658147 -21.6223993152723" fill="#8eff24" stroke="none" /><path d="M 114.91283532996324 114.78537596483092 l 18.593758175137697 18.43483812003152 a47.183412680307114,47.183412680307114 0 0,0 -0.5752064229524235,0.5702901582805896 l -18.27455983205531 -18.751308288540773" fill="#c2ff1e" stroke="none" /><path d="M 114.39649973595853 115.28858382429668 l 2.3388905714606967 2.4838207351415766 a24.41171138134324,24.41171138134324 0 0,0 -0.307552955370448,0.2846664239918654 l -2.295907844776281 -2.5236049052658216" fill="#ff0c01" stroke="none" /><path d="M 113.59037401385874 116.0094264158162 l 16.16798650628832 19.04584745058383 a45.98295604564103,45.98295604564103 0 0,0 -0.6061553535494763,0.5056763545931812 l -15.83865681857695 -19.320585989088883" fill="#d0ff1d" stroke="none" /><path d="M 113.31354834802062 116.24036423190432 l 20.862683923715096 25.449082161976854 a53.9075578460008,53.9075578460008 0 0,0 -0.7206907303473518,0.5805374373478035 l -20.42274242301249 -25.80346789311806" fill="#76ff27" stroke="none" /><path d="M 112.7482090630111 116.68781488649013 l 15.842376009860063 20.738178744008767 a47.096990923404306,47.096990923404306 0 0,0 -0.6466798363838285,0.4852806051878136 l -15.484043184565468 -21.007078376460598" fill="#c3ff1e" stroke="none" /><path d="M 112.45986205192187 116.90419585922612 l 14.624633250013442 19.841123745783822 a45.64853117718996,45.64853117718996 0 0,0 -0.6347732358226399,0.45952687041952384 l -14.281879003816835 -20.08925138757642" fill="#d4ff1c" stroke="none" /><path d="M 111.8722381534696 117.32195027204791 l 14.65510629898453 21.382238063376317 a46.922427456421495,46.922427456421495 0 0,0 -0.6683177249387979,0.44967399141123393 l -14.285892285948728 -21.63066172884467" fill="#c5ff1e" stroke="none" /><path d="M 111.5731344415666 117.5232005979908 l 20.849313908954958 31.568518606757152 a58.832066524303364,58.832066524303364 0 0,0 -0.8475021622672942,0.5493406623510261 l -20.304326114430655 -31.921773110812072" fill="#42ff2d" stroke="none" /><path d="M 110.96478420261333 117.91015095944535 l 13.230396460297342 21.61085831500091 a46.3391512803348,46.3391512803348 0 0,0 -0.6819958928419528,0.40951893831799896 l -12.857467810897953 -21.834791253854835" fill="#ccff1d" stroke="none" /><line stroke="#e1ed5e" stroke-width="0.3" x1="143.1302829299769" x2="145.66735839644613" y1="173.24464959558577" y2="177.55315839532614" /><path d="M 143.63769802327073 174.10635135553383 a86.0,86.0 0 0,1 -40.68552437913181,11.842963189579606" fill="none" id="id66" stroke="none" /><text fill="#e1ed5e" style="font-size:6.75px; font-family:Arial;" text-anchor="middle"><textPath startOffset="21.407464694133747" xlink:href="#id66">June</textPath></text><path d="M 110.65571695917076 118.09573695890943 l 7.550766064836226 12.822851533227022 a35.880846400963385,35.880846400963385 0 0,0 -0.5334414526630895,0.30798256629194093 l -7.329532144312738 -12.950580996795134" fill="#ffae10" stroke="none" /><path d="M 110.34350942703117 118.27599006163325 l 12.451041395584747 21.999797110254576 a46.27883511412127,46.27883511412127 0 0,0 -0.694746273099645,0.3853640463598401 l -12.071550934329009 -22.21029407204756" fill="#cdff1d" stroke="none" /><path d="M 110.02825361518725 118.45085714620011 l 12.797547425729514 23.546045845535502 a47.799132356736024,47.799132356736024 0 0,0 -0.7242961196005823,0.38564688754613463 l -12.391462490342377 -23.762263200804203" fill="#bbff1f" stroke="none" /><path d="M 109.71004243097381 118.62028667847754 l 11.747930827227249 22.528206383950586 a46.40736038236141,46.40736038236141 0 0,0 -0.7095304824239909,0.36229131993053326 l -11.359473123089677 -22.726555655553955" fill="#cbff1d" stroke="none" /><path d="M 109.06512990194946 118.94263497670748 l 9.363523069053059 19.56616193165731 a42.69124839654289,42.69124839654289 0 0,0 -0.6637702104945817,0.31067797423419524 l -9.026264144686971 -19.724016137462037" fill="#f8ff18" stroke="none" /><path d="M 108.4095320186766 119.2426549942271 l 20.081732621674718 45.95093420977473 a71.14742605398088,71.14742605398088 0 0,0 -1.1233329034002608,0.479484018958165 l -19.289964643104025 -46.288892878392296" fill="#3dffaa" stroke="none" /><path d="M 107.74402155503746 119.51999308798841 l 9.306866359741015 23.45938292162947 a46.238074579922284,46.238074579922284 0 0,0 -0.7403106286982248,0.2863680548641102 l -8.90278346854926 -23.61569086463162" fill="#cdff1d" stroke="none" /><path d="M 107.407793817531 119.65005319985036 l 10.28292351711286 27.276676313948265 a50.150567520971165,50.150567520971165 0 0,0 -0.8081664809428017,0.29676992607437397 l -9.81316788451593 -27.44917708903136" fill="#a0ff22" stroke="none" /><path d="M 107.06938296918513 119.77432235084164 l 9.270232102395783 25.93048907647803 a48.537746221824975,48.537746221824975 0 0,0 -0.786991544117855,0.2737565115286156 l -8.823734786232905 -26.085804020575235" fill="#b2ff20" stroke="none" /><path d="M 106.38641147887787 120.00534299687104 l 6.5452626896698245 20.50294215218251 a42.522339570142606,42.522339570142606 0 0,0 -0.6972840925329616,0.2160203942755886 l -6.1923379642652385 -20.612279134264742" fill="#fbff18" stroke="none" /><path d="M 105.69591212413111 120.21278271476187 l 6.972900214493676 24.74436294938052 a46.70806945633922,46.70806945633922 0 0,0 -0.7736159658737554,0.21085247161628806 l -6.547102847685226 -24.86041591514095" fill="#c8ff1d" stroke="none" /><path d="M 104.64783097203109 120.47920084513623 l 5.75770396605275 25.369506042106387 a47.01466878092381,47.01466878092381 0 0,0 -0.7885873007068743,0.17186893183989024 l -5.321354248726739 -25.464606432079997" fill="#c4ff1e" stroke="none" /><path d="M 104.29559338865022 120.5559693870025 l 5.494440038031523 26.29288459166444 a47.86083862209274,47.86083862209274 0 0,0 -0.8056654599212102,0.1611556559614095 l -5.042278092579354 -26.38332964428871" fill="#baff1f" stroke="none" /><path d="M 103.2317021107853 120.74984581791261 l 6.188815113837041 39.736632587240706 a61.215686017854004,61.215686017854004 0 0,0 -1.0397189688367219,0.15280288372992942 l -5.505771039392633 -39.83701654426952" fill="#30ff35" stroke="none" /><line stroke="#e1ed5e" stroke-width="0.3" x1="101.45913802915013" x2="101.54496967792366" y1="184.9874750549273" y2="189.98673829345242" /><path d="M 101.47630435890484 185.9873277026323 a86.0,86.0 0 0,1 -42.54439059252881,-10.42667462771756" fill="none" id="id67" stroke="none" /><text fill="#e1ed5e" style="font-size:6.75px; font-family:Arial;" text-anchor="middle"><textPath startOffset="22.145653131862474" xlink:href="#id67">July</textPath></text><line stroke="#e1ed5e" stroke-width="0.3" x1="58.13341422392154" x2="55.670673884152215" y1="173.97424548756322" y2="178.32567169271397" /><path d="M 57.64086615596767 174.84453072859336 a86.0,86.0 0 0,1 -31.369924170532244,-30.572349798747897" fill="none" id="id68" stroke="none" /><text fill="#e1ed5e" style="font-size:6.75px; font-family:Arial;" text-anchor="middle"><textPath startOffset="22.145653131862474" xlink:href="#id68">August</textPath></text><line stroke="#e1ed5e" stroke-width="0.3" x1="26.387840678322732" x2="22.057713659400548" y1="142.50000000000003" y2="145.00000000000006" /><path d="M 25.521815274538298 143.00000000000003 a86.0,86.0 0 0,1 -11.493303480769221,-40.785679425670985" fill="none" id="id69" stroke="none" /><text fill="#e1ed5e" style="font-size:6.75px; font-family:Arial;" text-anchor="middle"><textPath startOffset="21.40746469413373" xlink:href="#id69">September</textPath></text><line stroke="#e1ed5e" stroke-width="0.3" x1="15.003131293944662" x2="10.003315487706104" y1="100.72959589197737" y2="100.7725132973878" /><path d="M 14.003168132696942 100.73817937305945 a86.0,86.0 0 0,1 10.791469493833615,-42.45332614584628" fill="none" id="id70" stroke="none" /><text fill="#e1ed5e" style="font-size:6.75px; font-family:Arial;" text-anchor="middle"><textPath startOffset="22.145653131862435" xlink:href="#id70">October</textPath></text><line stroke="#e1ed5e" stroke-width="0.3" x1="26.387840678322718" x2="22.05771365940052" y1="57.49999999999999" y2="54.99999999999999" /><path d="M 25.521815274538284 56.99999999999999 a86.0,86.0 0 0,1 29.574782752854787,-30.34633250058573" fill="none" id="id71" stroke="none" /><text fill="#e1ed5e" style="font-size:6.75px; font-family:Arial;" text-anchor="middle"><textPath startOffset="21.40746469413373" xlink:href="#id71">November</textPath></text><line stroke="#e1ed5e" stroke-width="0.3" x1="56.869717070023135" x2="54.33264160355391" y1="26.7553504044142" y2="22.446841604673864" /><path d="M 56.362301976729285 25.89364864446614 a86.0,86.0 0 0,1 42.16139366436587,-11.88097634709845" fill="none" id="id72" stroke="none" /><text fill="#e1ed5e" style="font-size:6.75px; font-family:Arial;" text-anchor="middle"><textPath startOffset="22.145653131862474" xlink:href="#id72">December</textPath></text></svg>
