<?xml version="1.0" encoding="utf-8" ?>
<svg baseProfile="full" height="200mm" version="1.1" viewBox="0,0,200,200" width="200mm" xmlns="http://www.w3.org/2000/svg" xmlns:ev="http://www.w3.org/2001/xml-events" xmlns:xlink="http://www.w3.org/1999/xlink"><defs /><rect fill="#1a1a1a" height="200" width="200" x="0" y="0" /><text alignment-baseline="middle" fill="#e1ed5e" style="dominant-baseline: central; font-size:9.0px; font-family:Arial;" text-anchor="middle" x="100.0" y="100.0">2020</text><line stroke="#e1ed5e" stroke-width="0.3" x1="100.0" x2="100.0" y1="15.0" y2="10.0" /><path d="M 100.0 14.0 a86.0,86.0 0 0,1 42.35913384403234,11.155469271406648" fill="none" id="id13" stroke="none" /><text fill="#e1ed5e" style="font-size:6.75px; font-family:Arial;" text-anchor="middle"><textPath startOffset="22.145653131862478" xlink:href="#id13">January</textPath></text><line stroke="#e1ed5e" stroke-width="0.3" x1="143.13028292997686" x2="145.6673583964461" y1="26.7553504044142" y2="22.446841604673864" /><path d="M 143.63769802327073 25.89364864446614 a86.0,86.0 0 0,1 29.32050498858742,28.57503671076993" fill="none" id="id14" stroke="none" /><text fill="#e1ed5e" style="font-size:6.75px; font-family:Arial;" text-anchor="middle"><textPath startOffset="20.669276256404974" xlink:href="#id14">February</textPath></text><line stroke="#e1ed5e" stroke-width="0.3" x1="172.87174338648825" x2="177.1583165268699" y1="56.24261187166439" y2="53.66864786411523" /><path d="M 173.72905801456457 55.72781907015455 a86.0,86.0 0 0,1 12.242430191666344,42.057860355516425" fill="none" id="id15" stroke="none" /><text fill="#e1ed5e" style="font-size:6.75px; font-family:Arial;" text-anchor="middle"><textPath startOffset="22.145653131862474" xlink:href="#id15">March</textPath></text><line stroke="#e1ed5e" stroke-width="0.3" x1="184.99686870605535" x2="189.99668451229388" y1="99.2704041080226" y2="99.22748670261217" /><path d="M 185.99683186730306 99.26182062694052 a86.0,86.0 0 0,1 -10.086455211305974,41.156179273409016" fill="none" id="id16" stroke="none" /><text fill="#e1ed5e" style="font-size:6.75px; font-family:Arial;" text-anchor="middle"><textPath startOffset="21.40746469413373" xlink:href="#id16">April</textPath></text><line stroke="#e1ed5e" stroke-width="0.3" x1="174.33088141563837" x2="178.70328620479359" y1="141.23008692659167" y2="143.65538615756765" /><path d="M 175.20536237346943 141.71514677278685 a86.0,86.0 0 0,1 -30.301960400862466,31.631185727798858" fill="none" id="id17" stroke="none" /><text fill="#e1ed5e" style="font-size:6.75px; font-family:Arial;" text-anchor="middle"><textPath startOffset="22.145653131862474" xlink:href="#id17">May</textPath></text><line stroke="#e1ed5e" stroke-width="0.3" x1="143.1302829299769" x2="145.66735839644613" y1="173.24464959558577" y2="177.55315839532614" /><path d="M 143.63769802327073 174.10635135553383 a86.0,86.0 0 0,1 -40.68552437913181,11.842963189579606" fill="none" id="id18" stroke="none" /><text fill="#e1ed5e" style="font-size:6.75px; font-family:Arial;" text-anchor="middle"><textPath startOffset="21.407464694133747" xlink:href="#id18">June</textPath></text><line stroke="#e1ed5e" stroke-width="0.3" x1="101.45913802915013" x2="101.54496967792366" y1="184.9874750549273" y2="189.98673829345242" /><path d="M 101.47630435890484 185.9873277026323 a86.0,86.0 0 0,1 -42.54439059252881,-10.42667462771756" fill="none" id="id19" stroke="none" /><text fill="#e1ed5e" style="font-size:6.75px; font-family:Arial;" text-anchor="middle"><textPath startOffset="22.145653131862474" xlink:href="#id19">July</textPath></text><path d="M 99.63950707515114 120.99690560180557 l -0.5111524949530665 29.77207025396405 a50.77645788336933,50.77645788336933 0 0,0 -0.8713885418959011,-0.0224438778112784 l 1.0221543509197115 -29.75890865880272" fill="#f5ff19" stroke="none" /><path d="M 97.48249496171623 120.84855314841334 l -3.5342943302039966 29.26902709820447 a50.481641468682504,50.481641468682504 0 0,0 -0.8594431624957802,-0.11127212403662658 l 4.036215314590571 -29.204043377967448" fill="#faff18" stroke="none" /><path d="M 93.61358852112213 120.00534299687104 l -8.965804451988376 28.085254747227154 a50.481641468682504,50.481641468682504 0 0,0 -0.8232768747258346,-0.2706274610789417 l 9.446604064361953 -27.92720636474619" fill="#faff18" stroke="none" /><path d="M 92.59220618246901 119.65005319985036 l -12.027665231811925 31.904810999973034 a55.09665226781858,55.09665226781858 0 0,0 -0.8821439398185456,-0.3412322265319983 l 12.573581434124 -31.693638885302992" fill="#b5ff1f" stroke="none" /><path d="M 92.25597844496254 119.51999308798841 l -16.782197900185125 42.30210165153427 a66.50944924406048,66.50944924406048 0 0,0 -1.0576444697016572,-0.43013479834458257 l 17.505896831077223 -42.0077795966104" fill="#31ff44" stroke="none" /><path d="M 90.93487009805054 118.94263497670748 l -7.525722043330077 15.725864620241772 a38.43385529157668,38.43385529157668 0 0,0 -0.5926861960724708,-0.2899125183830783 l 7.794568488664618 -15.59435835176147" fill="#ff3d05" stroke="none" /><path d="M 90.6110303473126 118.78422872680471 l -15.47760494041826 30.96557791735139 a55.618250539956804,55.618250539956804 0 0,0 -0.8503574392520943,-0.4341985675187633 l 16.006889601383936 -30.69532139815979" fill="#aeff20" stroke="none" /><path d="M 90.28995756902619 118.62028667847754 l -10.85826019143994 20.822145632357987 a44.48326133909288,44.48326133909288 0 0,0 -0.6740510127804092,-0.35889419823128815 l 11.214100020006912 -20.632680966404127" fill="#ffa50f" stroke="none" /><line stroke="#e1ed5e" stroke-width="0.3" x1="58.13341422392154" x2="55.670673884152215" y1="173.97424548756322" y2="178.32567169271397" /><path d="M 57.64086615596767 174.84453072859336 a86.0,86.0 0 0,1 -31.369924170532244,-30.572349798747897" fill="none" id="id20" stroke="none" /><text fill="#e1ed5e" style="font-size:6.75px; font-family:Arial;" text-anchor="middle"><textPath startOffset="22.145653131862474" xlink:href="#id20">August</textPath></text><path d="M 88.1277618465304 117.32195027204791 l -7.968246233673168 11.625909388852897 a35.09449244060475,35.09449244060475 0 0,0 -0.49400496372418795,-0.34485383103840483 l 8.16664628857112 -11.487410742009361" fill="#ff0000" stroke="none" /><path d="M 87.83215693770417 117.11559508785305 l -13.787375089755828 19.39366970402787 a44.79508639308855,44.79508639308855 0 0,0 -0.6229055175581507,-0.4509355576083721 l 14.118261617687933 -19.154133375046435" fill="#ffaa0f" stroke="none" /><path d="M 85.08716467003676 114.78537596483092 l -16.28575024559971 16.14655663545926 a43.93331533477322,43.93331533477322 0 0,0 -0.5263905717824994,-0.5401230991271878 l 16.560527618533023 -15.864610844264332" fill="#ff9c0e" stroke="none" /><path d="M 84.3458050057657 113.99807769240083 l -25.674739360144006 22.958510254140123 a55.442494600431964,55.442494600431964 0 0,0 -0.6283190619732515,-0.714911753586203 l 26.06506948607585 -22.51438622274262" fill="#b0ff20" stroke="none" /><line stroke="#e1ed5e" stroke-width="0.3" x1="26.387840678322732" x2="22.057713659400548" y1="142.50000000000003" y2="145.00000000000006" /><path d="M 25.521815274538298 143.00000000000003 a86.0,86.0 0 0,1 -11.493303480769221,-40.785679425670985" fill="none" id="id21" stroke="none" /><text fill="#e1ed5e" style="font-size:6.75px; font-family:Arial;" text-anchor="middle"><textPath startOffset="21.40746469413373" xlink:href="#id21">September</textPath></text><path d="M 81.81346652052679 110.50000000000001 l -29.656226300220887 17.122030237581008 a55.24406047516199,55.24406047516199 0 0,0 -0.4671191391014281,-0.825354760300799 l 29.945778804343693 -16.61041870718109" fill="#b3ff20" stroke="none" /><line stroke="#e1ed5e" stroke-width="0.3" x1="15.003131293944662" x2="10.003315487706104" y1="100.72959589197737" y2="100.7725132973878" /><path d="M 14.003168132696942 100.73817937305945 a86.0,86.0 0 0,1 10.791469493833615,-42.45332614584628" fill="none" id="id22" stroke="none" /><text fill="#e1ed5e" style="font-size:6.75px; font-family:Arial;" text-anchor="middle"><textPath startOffset="22.145653131862435" xlink:href="#id22">October</textPath></text><line stroke="#e1ed5e" stroke-width="0.3" x1="26.387840678322718" x2="22.05771365940052" y1="57.49999999999999" y2="54.99999999999999" /><path d="M 25.521815274538284 56.99999999999999 a86.0,86.0 0 0,1 29.574782752854787,-30.34633250058573" fill="none" id="id23" stroke="none" /><text fill="#e1ed5e" style="font-size:6.75px; font-family:Arial;" text-anchor="middle"><textPath startOffset="21.40746469413373" xlink:href="#id23">November</textPath></text><path d="M 83.8745106332314 86.54754324733833 l -48.376468100305814 -40.357370257985025 a84.0,84.0 0 0,0 0.933221745971542,-1.0993328702017733 l 47.676551790827155 41.18186991063636" fill="#4dd2ff" stroke="none" /><line stroke="#e1ed5e" stroke-width="0.3" x1="56.869717070023135" x2="54.33264160355391" y1="26.7553504044142" y2="22.446841604673864" /><path d="M 56.362301976729285 25.89364864446614 a86.0,86.0 0 0,1 42.16139366436587,-11.88097634709845" fill="none" id="id24" stroke="none" /><text fill="#e1ed5e" style="font-size:6.75px; font-family:Arial;" text-anchor="middle"><textPath startOffset="22.145653131862474" xlink:href="#id24">December</textPath></text></svg>